<?xml version="1.0" encoding="UTF-8" standalone="no"?>
<svg width="339px" height="188px" viewBox="0 0 339 188" version="1.1" xmlns="http://www.w3.org/2000/svg" xmlns:xlink="http://www.w3.org/1999/xlink" xmlns:sketch="http://www.bohemiancoding.com/sketch/ns">
    <!-- Generator: Sketch 3.4 (15575) - http://www.bohemiancoding.com/sketch -->
    <title>Group</title>
    <desc>Created with Sketch.</desc>
    <defs></defs>
    <g>
        <g id="cover" transform="translate(-238.000000, -120.000000)">
            <g transform="translate(238.000000, 120.000000)" sketch:type="MSShapeGroup">
                <g id="mountains" transform="translate(18.000000, 5.000000)">
                    <g transform="translate(0.000000, 4.000000)">
                        <path d="M282.1,171.7 L295.9,171.9 C298.6,171.9 301,170.7 302.9,168.8 C303,168.7 303.1,168.5 303.2,168.5 L303.2,168.4 C303.4,168.2 303.6,167.9 303.8,167.6 C307.3,162.9 307.5,155.6 303.8,150.9 L191.3,4.7 C191,4.3 190.8,4 190.5,3.6 C189.6,2.6 188.6,1.8 187.5,1.2 C187.5,1.2 187.5,1.2 187.4,1.2 C186.9,0.9 186.3,0.7 185.8,0.6 C185.6,0.6 185.5,0.5 185.4,0.5 C185,0.4 184.6,0.3 184.1,0.3 C183.8,0.2 183.6,0.2 183.3,0.2 C183.1,0.2 182.8,0.2 182.5,0.3 C182.1,0.3 181.6,0.4 181.2,0.5 C181.1,0.5 180.9,0.6 180.7,0.6 C180.2,0.7 179.7,0.9 179.1,1.2 C179.1,1.2 179.1,1.2 179,1.2 C177.9,1.7 176.9,2.5 176,3.5 C175.7,3.9 175.5,4.2 175.2,4.6 L59.5,148.1 C58.6,149.2 57.9,150.5 57.4,151.8 L57.4,151.8 C57.2,152.4 57,153.1 56.8,153.7 C56.8,153.9 56.7,154.1 56.7,154.3 C56.6,154.8 56.6,155.3 56.6,155.8 C56.5,156.1 56.5,156.4 56.5,156.7 C56.6,156.8 56.5,156.8 56.5,156.9 L56.5,157.5 C56.8,164 61.3,169.3 66.8,169.3 L83.8,169.5 L282.1,171.7 L282.1,171.7 Z" fill="#333842"></path>
                        <path d="M191.3,4.7 C191,4.3 190.8,4 190.5,3.6 C189.6,2.6 188.6,1.8 187.5,1.2 C187.5,1.2 187.5,1.2 187.4,1.2 C186.9,0.9 186.3,0.7 185.8,0.6 C185.6,0.6 185.5,0.5 185.4,0.5 C185,0.4 184.6,0.3 184.1,0.3 C183.8,0.2 183.6,0.2 183.3,0.2 C183.1,0.2 182.8,0.2 182.5,0.3 C182.2,0.3 182,0.4 181.7,0.4 L181.7,170.6 L282.1,171.7 L295.9,171.9 C298.6,171.9 301,170.7 302.9,168.8 C303,168.7 303.1,168.5 303.2,168.5 L303.2,168.4 C303.4,168.2 303.6,167.9 303.8,167.6 C307.3,162.9 307.5,155.6 303.8,150.9 L191.3,4.7 L191.3,4.7 Z" fill="#2F333D"></path>
                        <path d="M178,171.8 L188.8,171.9 C190.9,171.9 192.8,171 194.3,169.5 L194.5,169.3 L194.5,169.3 C194.7,169.1 194.8,168.9 195,168.6 C197.8,164.9 197.9,159.2 195,155.5 L106.5,40.6 C106.3,40.3 106.1,40 105.9,39.8 C105.2,39 104.4,38.4 103.6,37.9 L103.6,37.9 C103.2,37.7 102.8,37.5 102.4,37.4 C102.3,37.4 102.2,37.3 102.1,37.3 C101.8,37.2 101.4,37.2 101.1,37.1 C100.9,37.1 100.7,37 100.4,37 C100.2,37 100,37 99.8,37.1 C99.5,37.1 99.1,37.2 98.8,37.2 C98.7,37.2 98.6,37.3 98.4,37.3 C98,37.4 97.6,37.6 97.1,37.8 C97.1,37.8 97.1,37.8 97,37.8 C96.2,38.2 95.3,38.8 94.6,39.6 C94.4,39.9 94.2,40.1 94,40.4 L2.9,153.3 C2.2,154.2 1.7,155.2 1.3,156.2 L1.3,156.2 C1.1,156.7 1,157.2 0.8,157.7 C0.8,157.8 0.7,158 0.7,158.1 C0.6,158.5 0.6,158.9 0.6,159.3 C0.5,159.5 0.5,159.7 0.5,160 L0.5,160.2 L0.5,160.7 C0.7,165.8 4.2,169.9 8.6,170 L22,170.2 L178,171.8 L178,171.8 Z" fill="#333842"></path>
                        <path d="M106.5,40.4 C106.3,40.1 106.1,39.8 105.9,39.6 C105.2,38.8 104.4,38.2 103.6,37.7 L103.6,37.7 C103.2,37.5 102.8,37.3 102.4,37.2 C102.3,37.2 102.2,37.1 102.1,37.1 C101.8,37 101.4,37 101.1,36.9 C100.9,36.9 100.7,36.8 100.4,36.8 C100.2,36.8 100,36.8 99.8,36.9 C99.6,36.9 99.4,37 99.2,37 L99.2,170.9 L178.2,171.8 L189,171.9 C191.1,171.9 193,171 194.5,169.5 L194.7,169.3 L194.7,169.3 C194.9,169.1 195,168.9 195.2,168.6 C198,164.9 198.1,159.2 195.2,155.5 L106.5,40.4 L106.5,40.4 Z" fill="#2F333D"></path>
                    </g>
                    <g transform="translate(84.000000, 0.000000)" fill="#3C414C">
                        <path d="M30.2,57.5 C28.6,59 26.1,59 24.6,57.4 L13,45.3 C11.5,43.7 11.5,41.2 13.1,39.7 L13.1,39.7 C14.7,38.2 17.1,38.2 18.7,39.8 L30.4,51.9 C31.8,53.5 31.8,56 30.2,57.5 L30.2,57.5 L30.2,57.5 Z"></path>
                        <path d="M1.2,57.5 C2.8,59 5.2,59 6.8,57.4 L18.5,45.4 C20,43.8 20,41.4 18.4,39.8 L18.4,39.8 C16.8,38.3 14.4,38.3 12.8,39.9 L1.1,51.9 C-0.4,53.5 -0.3,56 1.2,57.5 L1.2,57.5 L1.2,57.5 Z"></path>
                        <path d="M113.9,19.2 C112.3,20.7 109.8,20.7 108.3,19.1 L96.6,7 C95.1,5.4 95.1,2.9 96.7,1.4 L96.7,1.4 C98.3,-0.1 100.7,-0.1 102.3,1.5 L114,13.6 C115.5,15.2 115.4,17.7 113.9,19.2 L113.9,19.2 L113.9,19.2 Z"></path>
                        <path d="M84.9,19.1 C86.5,20.6 88.9,20.6 90.5,19 L102.2,7 C103.7,5.4 103.7,3 102.1,1.4 L102.1,1.4 C100.5,-0.1 98.1,-0.1 96.5,1.5 L84.8,13.5 C83.3,15.1 83.3,17.6 84.9,19.1 L84.9,19.1 L84.9,19.1 Z"></path>
                    </g>
                </g>
                <g id="trees-shadow" transform="translate(39.000000, 121.000000)" fill="#282C36">
                    <path d="M198.8,39.1 L192.4,30.8 L192.4,30.8 L191.8,30.1 C193.9,30.1 195.4,30.2 195.4,30.2 L188.6,20.9 L188.6,20.9 L188,20 L191.4,20 L183.8,8 L176.2,20 L179.6,20 L177.9,22.3 L177.9,22.3 L172.2,30.1 C172.2,30.1 173.6,30.1 175.8,30 L168.8,39 C168.8,39 174,38.9 182.5,38.9 L182.5,43.2 L182.5,43.4 C182.5,43.4 182.5,43.4 182.6,43.5 C182.6,43.5 182.6,43.5 182.7,43.6 C182.7,43.6 182.8,43.6 182.8,43.7 L182.9,43.7 L183,43.7 L183.1,43.7 L183.1,43.7 L183.2,43.7 L184.7,43.7 C185.1,43.7 185.4,43.5 185.4,43.2 L185.4,39 C194.6,39 198.8,39.1 198.8,39.1 L198.8,39.1 Z"></path>
                    <path d="M217.8,38.7 L210.9,29.7 L210.9,29.7 L210.3,28.9 C212.6,28.9 214.2,29 214.2,29 L206.8,19 L206.8,19 L206.2,18.1 L209.8,18.1 L201.5,5.1 L193.2,18.1 L196.8,18.1 L195,20.6 L195,20.6 L188.8,29 C188.8,29 190.4,29 192.7,28.9 L185.1,38.7 C185.1,38.7 190.7,38.6 199.9,38.6 L199.9,43.3 C199.9,43.4 199.9,43.4 200,43.5 C200,43.5 200,43.6 200.1,43.6 C200.1,43.6 200.1,43.7 200.2,43.7 C200.2,43.7 200.3,43.7 200.3,43.8 L200.4,43.8 L200.5,43.8 L200.6,43.8 L200.6,43.8 L200.7,43.8 L202.3,43.8 C202.7,43.8 203,43.6 203,43.3 L203,38.6 C213.3,38.6 217.8,38.7 217.8,38.7 L217.8,38.7 Z"></path>
                    <path d="M238.3,39.3 L232.2,31.4 L232.2,31.4 L231.7,30.7 C233.7,30.7 235.1,30.8 235.1,30.8 L228.6,22 L228.6,22 L228,21.2 L231.2,21.2 L223.9,9.8 L216.6,21.2 L219.8,21.2 L218.2,23.4 L218.2,23.4 L212.8,30.8 C212.8,30.8 214.2,30.8 216.2,30.7 L209.6,39.3 C209.6,39.3 214.5,39.3 222.6,39.2 L222.6,43.3 L222.6,43.5 C222.6,43.5 222.6,43.5 222.7,43.6 C222.7,43.6 222.7,43.6 222.8,43.7 C222.8,43.7 222.9,43.7 222.9,43.8 L223,43.8 L223.1,43.8 L223.2,43.8 L223.2,43.8 L223.3,43.8 L224.7,43.8 C225,43.8 225.3,43.6 225.3,43.4 L225.3,39.3 C234.3,39.2 238.3,39.3 238.3,39.3 L238.3,39.3 Z"></path>
                    <path d="M109.3,39.1 L102.9,30.8 L102.9,30.8 L102.3,30.1 C104.4,30.1 105.9,30.2 105.9,30.2 L99.1,20.9 L99.1,20.9 L98.5,20.1 L101.9,20.1 L94.3,8.1 L86.7,20.1 L90.1,20.1 L88.4,22.4 L88.4,22.4 L82.7,30.2 C82.7,30.2 84.1,30.2 86.3,30.1 L79.3,39.1 C79.3,39.1 84.5,39 93,39 L93,43.3 L93,43.5 C93,43.5 93,43.5 93.1,43.6 C93.1,43.6 93.1,43.6 93.2,43.7 C93.2,43.7 93.3,43.7 93.3,43.8 L93.4,43.8 L93.5,43.8 L93.6,43.8 L93.6,43.8 L93.7,43.8 L95.2,43.8 C95.6,43.8 95.9,43.6 95.9,43.3 L95.9,39 C105.1,39 109.3,39.1 109.3,39.1 L109.3,39.1 Z"></path>
                    <path d="M95,38.1 L87.3,28.2 L87.3,28.2 L86.6,27.3 C89.2,27.3 90.9,27.4 90.9,27.4 L82.7,16.3 L82.7,16.3 L82,15.3 L86,15.3 L76.8,0.9 L67.6,15.3 L71.6,15.3 L69.6,18.1 L69.6,18.1 L62.7,27.4 C62.7,27.4 64.4,27.4 67,27.3 L58.6,38.1 C58.6,38.1 64.8,38 75,38 L75,43.2 C75,43.3 75,43.3 75.1,43.4 L75.2,43.5 C75.2,43.5 75.2,43.6 75.3,43.6 L75.4,43.7 L75.5,43.7 L75.7,43.7 L75.8,43.7 L75.8,43.7 L75.9,43.7 L77.7,43.7 C78.1,43.7 78.5,43.5 78.5,43.1 L78.5,38 C89.9,38 95,38.1 95,38.1 L95,38.1 Z"></path>
                    <path d="M135,38.1 L127.3,28.2 L127.3,28.2 L126.6,27.3 C129.2,27.3 130.9,27.4 130.9,27.4 L122.7,16.3 L122.7,16.3 L122,15.3 L126,15.3 L116.8,0.9 L107.6,15.3 L111.6,15.3 L109.6,18.1 L109.6,18.1 L102.7,27.4 C102.7,27.4 104.4,27.4 107,27.3 L98.6,38.1 C98.6,38.1 104.8,38 115,38 L115,43.2 C115,43.3 115,43.3 115.1,43.4 L115.2,43.5 C115.2,43.5 115.2,43.6 115.3,43.6 L115.4,43.7 L115.5,43.7 L115.7,43.7 L115.8,43.7 L115.8,43.7 L115.9,43.7 L117.7,43.7 C118.1,43.7 118.5,43.5 118.5,43.1 L118.5,38 C129.9,38 135,38.1 135,38.1 L135,38.1 Z"></path>
                    <path d="M37,38.1 L29.3,28.2 L29.3,28.2 L28.6,27.3 C31.2,27.3 32.9,27.4 32.9,27.4 L24.7,16.3 L24.7,16.3 L24,15.3 L28,15.3 L18.8,0.9 L9.6,15.3 L13.6,15.3 L11.6,18.1 L11.6,18.1 L4.7,27.4 C4.7,27.4 6.4,27.4 9,27.3 L0.6,38.1 C0.6,38.1 6.8,38 17,38 L17,43.2 C17,43.3 17,43.3 17.1,43.4 L17.2,43.5 C17.2,43.5 17.2,43.6 17.3,43.6 L17.4,43.7 L17.5,43.7 L17.7,43.7 L17.8,43.7 L17.8,43.7 L17.9,43.7 L19.7,43.7 C20.1,43.7 20.5,43.5 20.5,43.1 L20.5,38 C31.9,38 37,38.1 37,38.1 L37,38.1 Z"></path>
                    <path d="M57.3,38.7 L50.5,29.9 L50.5,29.9 L49.9,29.1 C52.2,29.1 53.7,29.2 53.7,29.2 L46.4,19.3 L46.4,19.3 L45.8,18.4 L49.4,18.4 L41.3,5.6 L33.2,18.4 L36.8,18.4 L35,20.8 L35,20.8 L28.9,29.1 C28.9,29.1 30.4,29.1 32.7,29 L25.3,38.6 C25.3,38.6 30.8,38.5 39.9,38.5 L39.9,43.1 C39.9,43.2 39.9,43.2 40,43.3 C40,43.3 40,43.4 40.1,43.4 C40.1,43.4 40.1,43.4 40.2,43.5 C40.2,43.5 40.3,43.5 40.3,43.6 L40.4,43.6 L40.5,43.6 L40.6,43.6 L40.6,43.6 L40.7,43.6 L42.3,43.6 C42.7,43.6 43,43.4 43,43.1 L43,38.5 C52.8,38.7 57.3,38.7 57.3,38.7 L57.3,38.7 Z"></path>
                    <path d="M184,38.1 L176.3,28.2 L176.3,28.2 L175.6,27.3 C178.2,27.3 179.9,27.4 179.9,27.4 L171.7,16.3 L171.7,16.3 L171,15.3 L175,15.3 L165.8,0.9 L156.6,15.3 L160.6,15.3 L158.6,18.1 L158.6,18.1 L151.7,27.4 C151.7,27.4 153.4,27.4 156,27.3 L147.6,38.1 C147.6,38.1 153.8,38 164,38 L164,43.2 C164,43.3 164,43.3 164.1,43.4 L164.2,43.5 C164.2,43.5 164.2,43.6 164.3,43.6 L164.4,43.7 L164.5,43.7 L164.7,43.7 L164.8,43.7 L164.8,43.7 L164.9,43.7 L166.7,43.7 C167.1,43.7 167.5,43.5 167.5,43.1 L167.5,38 C178.9,38 184,38.1 184,38.1 L184,38.1 Z"></path>
                    <path d="M225.5,39.1 L231.9,30.8 L231.9,30.8 L232.5,30.1 C230.4,30.1 228.9,30.2 228.9,30.2 L235.7,20.9 L235.7,20.9 L236.3,20.1 L232.9,20.1 L240.5,8.1 L248.1,20.1 L244.7,20.1 L246.4,22.4 L246.4,22.4 L252.1,30.2 C252.1,30.2 250.7,30.2 248.5,30.1 L255.5,39.1 C255.5,39.1 250.3,39 241.8,39 L241.8,43.3 L241.8,43.5 C241.8,43.5 241.8,43.5 241.7,43.6 C241.7,43.6 241.7,43.6 241.6,43.7 C241.6,43.7 241.5,43.7 241.5,43.8 C241.5,43.8 241.5,43.8 241.4,43.8 L241.3,43.8 C241.3,43.8 241.3,43.8 241.2,43.8 L241.2,43.8 C241.2,43.8 241.2,43.8 241.1,43.8 L239.6,43.8 C239.2,43.8 238.9,43.6 238.9,43.3 L238.9,39 C229.7,39 225.5,39.1 225.5,39.1 L225.5,39.1 Z"></path>
                    <path d="M240.3,38.1 L248,28.2 L248,28.2 L248.7,27.3 C246.1,27.3 244.4,27.4 244.4,27.4 L252.6,16.3 L252.6,16.3 L253.3,15.3 L249.3,15.3 L258.5,0.9 L267.7,15.3 L263.7,15.3 L265.7,18.1 L265.7,18.1 L272.6,27.4 C272.6,27.4 270.9,27.4 268.3,27.3 L276.7,38.1 C276.7,38.1 270.5,38 260.3,38 L260.3,43.2 C260.3,43.3 260.3,43.3 260.2,43.4 L260.1,43.5 C260.1,43.5 260.1,43.6 260,43.6 L259.9,43.7 L259.8,43.7 L259.6,43.7 L259.5,43.7 L259.5,43.7 L259.4,43.7 L257.6,43.7 C257.2,43.7 256.8,43.5 256.8,43.1 L256.8,38 C245.4,38 240.3,38.1 240.3,38.1 L240.3,38.1 Z"></path>
                </g>
                <g id="house" transform="translate(120.000000, 111.000000)">
                    <g transform="translate(7.000000, 17.000000)">
                        <rect fill="#E54938" x="1.3" y="0.9" width="5.6" height="9.6"></rect>
                        <g fill="#FFFFFF">
                            <path d="M7.5,1.4 C7.5,2 7.1,2.4 6.7,2.4 L1.5,2.4 C1,2.4 0.7,1.9 0.7,1.4 L0.7,1.4 C0.7,0.8 1.1,0.4 1.5,0.4 L6.7,0.4 C7.1,0.4 7.5,0.8 7.5,1.4 L7.5,1.4 L7.5,1.4 Z"></path>
                            <circle cx="1.9" cy="1.6" r="1.2"></circle>
                        </g>
                    </g>
                    <g transform="translate(2.000000, 14.000000)">
                        <g transform="translate(2.000000, 2.000000)">
                            <rect fill="#E54938" x="3.5" y="16.7" width="28.2" height="20.8"></rect>
                            <g transform="translate(12.000000, 22.000000)" fill="#C43E2E">
                                <circle cx="5.6" cy="5.9" r="5"></circle>
                                <rect x="0.6" y="5.8" width="10" height="9.8"></rect>
                            </g>
                            <path d="M0.9,19.3 L17.6,0 L34.2,19.3 L0.9,19.3 Z" fill="#E54938"></path>
                            <g transform="translate(6.000000, 21.000000)" fill="#FED304">
                                <rect x="0.8" y="0.2" width="4.4" height="4.4"></rect>
                                <rect x="17.9" y="0.2" width="4.4" height="4.4"></rect>
                            </g>
                        </g>
                        <path d="M34.9,23.2 C33.9,23.2 33,22.8 32.3,22.1 L19.6,9 L6.9,22 C6.2,22.7 5.3,23.1 4.3,23.1 C3.3,23.1 2.4,22.7 1.8,22.1 C1.1,21.4 0.7,20.5 0.7,19.6 C0.7,18.6 1.1,17.7 1.7,17 L17,1.3 C17.4,0.9 17.8,0.6 18.3,0.4 L18.7,0.3 L18.8,0.3 C19.1,0.2 19.4,0.2 19.6,0.2 C20.6,0.2 21.5,0.6 22.2,1.3 L37.4,17 C38.1,17.7 38.4,18.6 38.4,19.6 C38.4,20.6 38,21.5 37.3,22.1 C36.7,22.8 35.8,23.2 34.9,23.2 L34.9,23.2 L34.9,23.2 Z" fill="#FFFFFF"></path>
                    </g>
                    <g id="smoke" fill="#A7A9AC">
                        <g>
                            <path d="M19.8,1.7 C19.8,2.4 19.2,2.9 18.6,2.9 L5.2,2.9 C4.5,2.9 4,2.3 4,1.7 L4,1.7 C4,1 4.6,0.5 5.2,0.5 L18.6,0.5 C19.3,0.4 19.8,1 19.8,1.7 L19.8,1.7 L19.8,1.7 Z"></path>
                            <path d="M16.7,6.1 C16.7,6.8 16.1,7.3 15.5,7.3 L2.1,7.3 C1.4,7.3 0.9,6.7 0.9,6.1 L0.9,6.1 C0.9,5.4 1.5,4.9 2.1,4.9 L15.5,4.9 C16.1,4.9 16.7,5.4 16.7,6.1 L16.7,6.1 L16.7,6.1 Z"></path>
                            <path d="M19,10.3 C19,11 18.4,11.5 17.8,11.5 L4.4,11.5 C3.7,11.5 3.2,10.9 3.2,10.3 L3.2,10.3 C3.2,9.6 3.8,9.1 4.4,9.1 L17.8,9.1 C18.5,9.1 19,9.6 19,10.3 L19,10.3 L19,10.3 Z"></path>
                            <path d="M6.8,2.4 L6.8,3.6 C6.8,3.9 6.8,5.1 5.6,5.1 C5.6,5.1 4.2,5.5 5.5,5.5 C6.8,5.5 9,5.7 9,2.5 L6.8,2.4 L6.8,2.4 Z"></path>
                            <path d="M9.3,2.4 L9.3,3.6 C9.3,3.9 9.3,5.1 10.5,5.1 C10.5,5.1 11.9,5.5 10.6,5.5 C9.3,5.5 7.1,5.7 7.1,2.5 L9.3,2.4 L9.3,2.4 Z"></path>
                            <path d="M11,6.6 L11,7.8 C11,8.1 11,9.3 9.8,9.3 C9.8,9.3 8.4,9.7 9.7,9.7 C11,9.7 13.2,9.9 13.2,6.7 L11,6.6 L11,6.6 Z"></path>
                            <path d="M13.5,6.6 L13.5,7.8 C13.5,8.1 13.5,9.3 14.7,9.3 C14.7,9.3 16.1,9.7 14.8,9.7 C13.5,9.7 11.3,9.9 11.3,6.7 L13.5,6.6 L13.5,6.6 Z"></path>
                        </g>
                        <path d="M7,11.4 C8.3,11.4 11.1,13.3 11.1,15.3 C11.1,15.3 11.9,11.1 10.2,11.1 C8.5,11.1 7,11.4 7,11.4 L7,11.4 Z"></path>
                    </g>
                </g>
                <g id="snowman" transform="translate(213.000000, 140.000000)">
                    <circle fill="#E6E7E8" cx="13.1" cy="17.8" r="8.4"></circle>
                    <path d="M19.5,16.1 C19.5,14.1 18.8,12.2 17.7,10.7 C16.4,9.8 14.8,9.3 13.1,9.3 C8.4,9.3 4.7,13.1 4.7,17.7 C4.7,20.4 5.9,22.7 7.8,24.3 C8.7,24.6 9.7,24.8 10.7,24.8 C15.5,24.9 19.5,21 19.5,16.1 L19.5,16.1 Z" fill="#F1F2F2"></path>
                    <circle fill="#D34B3B" cx="13.1" cy="8.7" r="5.2"></circle>
                    <path d="M18.3,14.2 C18.3,14.8 17.8,15.3 17.2,15.3 L17.2,15.3 C16.6,15.3 16.1,14.8 16.1,14.2 L16.1,9.4 C16.1,8.8 16.6,8.3 17.2,8.3 L17.2,8.3 C17.8,8.3 18.3,8.8 18.3,9.4 L18.3,14.2 L18.3,14.2 Z" fill="#D34B3B"></path>
                    <circle fill="#E6E7E8" cx="13.1" cy="7.1" r="5.2"></circle>
                    <path d="M17.5,5.7 C17.5,5.1 17.4,4.6 17.3,4 C16.4,2.7 14.8,1.8 13,1.8 C10.1,1.8 7.8,4.1 7.8,7 C7.8,8.8 8.7,10.3 10,11.3 C10.5,11.5 11.1,11.5 11.7,11.5 C14.9,11.6 17.5,9 17.5,5.7 L17.5,5.7 Z" fill="#F1F2F2"></path>
                    <circle fill="#484D5B" cx="11.4" cy="5.8" r="0.6"></circle>
                    <circle fill="#484D5B" cx="14.7" cy="5.8" r="0.6"></circle>
                    <circle fill="#D1D3D4" cx="13.1" cy="15.4" r="0.9"></circle>
                    <circle fill="#D1D3D4" cx="13.1" cy="18.2" r="0.9"></circle>
                    <circle fill="#FFFFFF" cx="13" cy="15.3" r="0.9"></circle>
                    <circle fill="#FFFFFF" cx="13" cy="18.1" r="0.9"></circle>
                    <path d="M13,10.5 C12.2,10.5 11.5,10.1 11,9.5 L11,9.3 L11.2,9.3 C11.6,9.8 12.3,10.2 12.9,10.2 C13.6,10.2 14.3,9.8 14.7,9.2 C14.7,9.1 14.8,9.1 14.9,9.2 C15,9.2 15,9.3 14.9,9.4 C14.6,10.1 13.8,10.5 13,10.5 L13,10.5 Z" fill="#D1D3D4"></path>
                    <path fill="#A97C50" d="M13.5,2.4 L13.5,2.4 C13.4,2.4 13.4,2.3 13.4,2.3 L13.5,0.9 C13.5,0.8 13.6,0.8 13.6,0.8 C13.7,0.8 13.7,0.9 13.7,0.9 L13.6,2.3 C13.6,2.4 13.6,2.4 13.5,2.4 L13.5,2.4 Z"></path>
                    <path d="M13.5,1.8 L13.5,1.8 C13.4,1.7 13.3,1.6 13.4,1.6 L13.9,0.9 C13.9,0.8 14,0.8 14.1,0.9 C14.2,0.9 14.2,1 14.1,1.1 L13.6,1.8 C13.6,1.8 13.6,1.8 13.5,1.8 L13.5,1.8 Z" fill="#A97C50"></path>
                    <path d="M12.9,2.4 C12.8,2.4 12.8,2.3 12.8,2.3 L12.6,0.9 C12.6,0.8 12.6,0.8 12.7,0.7 C12.8,0.7 12.8,0.7 12.9,0.8 L13.1,2.2 C13.1,2.4 13,2.4 12.9,2.4 L12.9,2.4 L12.9,2.4 Z" fill="#A97C50"></path>
                    <circle fill="#F1592F" cx="13.1" cy="7.2" r="0.6"></circle>
                    <path d="M12.5,7.4 L13.1,8.9 L13.6,7.4 L12.5,7.4 Z" fill="#F1592F"></path>
                    <g transform="translate(0.000000, 8.000000)">
                        <circle fill="#BCBEC0" cx="6.7" cy="5.9" r="0.5"></circle>
                        <circle fill="#BCBEC0" cx="19.4" cy="5.9" r="0.5"></circle>
                        <g fill="#A97C50">
                            <path d="M6.7,6.3 C6.6,6.3 6.6,6.3 6.5,6.2 L0.3,2.7 C0.1,2.6 -1.27675648e-14,2.3 0.1,2.1 C0.2,1.9 0.5,1.8 0.7,1.9 L6.9,5.4 C7.1,5.5 7.2,5.8 7.1,6 C6.9,6.3 6.8,6.3 6.7,6.3 L6.7,6.3 Z"></path>
                            <path d="M2.2,3.7 C2,3.7 1.9,3.6 1.8,3.4 L1.1,1.3 C1,1.1 1.1,0.8 1.4,0.8 C1.6,0.7 1.9,0.8 1.9,1.1 L2.6,3.2 C2.7,3.4 2.6,3.7 2.3,3.7 L2.2,3.7 L2.2,3.7 Z"></path>
                            <path d="M19.4,6.3 C19.3,6.3 19.1,6.2 19,6.1 C18.9,5.9 19,5.6 19.2,5.5 L25.4,2 C25.6,1.9 25.9,2 26,2.2 C26.1,2.4 26,2.7 25.8,2.8 L19.6,6.3 L19.4,6.3 L19.4,6.3 Z"></path>
                            <path d="M23.9,3.7 L23.8,3.7 C23.6,3.6 23.5,3.4 23.5,3.2 L24.2,1.1 C24.3,0.9 24.5,0.8 24.7,0.8 C24.9,0.9 25,1.1 25,1.3 L24.3,3.4 C24.2,3.6 24.1,3.7 23.9,3.7 L23.9,3.7 Z"></path>
                        </g>
                    </g>
                </g>
                <g id="trees" transform="translate(21.000000, 120.000000)">
                    <g transform="translate(217.000000, 8.000000)">
                        <g transform="translate(0.000000, 1.000000)">
                            <g transform="translate(14.000000, 30.000000)">
                                <path d="M0.3,6.1 C0.3,6.4 0.6,6.6 1,6.6 L2.6,6.6 C3,6.6 3.3,6.4 3.3,6.1 L3.3,0.9 C3.3,0.6 3,0.4 2.6,0.4 L1,0.4 C0.6,0.4 0.3,0.6 0.3,0.9 L0.3,6.1 L0.3,6.1 Z" fill="#754C29"></path>
                                <path d="M0.9,0.5 C1.2,0.5 1.5,0.7 1.5,1 L1.5,6.2 C1.5,6.4 1.2,6.6 0.9,6.7 C0.6,6.7 0.3,6.5 0.3,6.2 L0.3,1 C0.3,0.7 0.6,0.5 0.9,0.5 L0.9,0.5 Z" fill="#603913"></path>
                            </g>
                            <g>
                                <path d="M31.2,31.7 L15.8,11.7 L0.4,31.7 C0.4,31.7 6.3,31.6 15.8,31.6 C26.5,31.7 31.2,31.7 31.2,31.7 L31.2,31.7 Z" fill="#65B75C"></path>
                                <path d="M15.8,11.8 L24.7,23.3 C23,23 19.5,22.9 15.6,23.3 C11.4,23.7 7.6,24.6 5.4,25.3 L15.8,11.8 L15.8,11.8 Z" fill="#209452"></path>
                                <path d="M27.7,22.6 L15.8,6.4 L3.9,22.6 C3.9,22.6 9.9,22.5 15.8,22.5 C21.7,22.4 27.7,22.6 27.7,22.6 L27.7,22.6 Z" fill="#65B75C"></path>
                                <path d="M15.8,6.3 L20.8,13.1 C19.4,12.8 17.7,12.7 16,12.8 C13.6,13 11.2,13.8 9.7,14.6 L15.8,6.3 L15.8,6.3 Z" fill="#209452"></path>
                                <path d="M23.6,12.3 L15.8,0 L8,12.3 L15.8,12.3 C19.6,12.2 23.6,12.3 23.6,12.3 L23.6,12.3 Z" fill="#65B75C"></path>
                            </g>
                        </g>
                        <g transform="translate(3.000000, 0.000000)" fill="#FFFFFF">
                            <g transform="translate(8.000000, 0.000000)">
                                <path d="M1.5,6.8 C2,7.1 2.8,7 3.1,6.4 L5.8,2.2 C6.1,1.7 6,0.9 5.4,0.6 L5.4,0.6 C4.9,0.3 4.1,0.4 3.8,1 L1.1,5.2 C0.8,5.8 1,6.5 1.5,6.8 L1.5,6.8 L1.5,6.8 Z"></path>
                                <path d="M8.2,6.7 C8.7,6.3 8.9,5.6 8.5,5.1 L5.7,1 C5.3,0.5 4.6,0.3 4.1,0.7 L4.1,0.7 C3.6,1.1 3.4,1.8 3.8,2.3 L6.6,6.4 C7,6.9 7.7,7.1 8.2,6.7 L8.2,6.7 L8.2,6.7 Z"></path>
                            </g>
                            <path d="M0.4,23.1 C0.4,23.7 0.9,24.3 1.6,24.3 L6.5,24.3 C7.1,24.3 7.7,23.8 7.7,23.1 L7.7,23.1 C7.7,22.5 7.2,21.9 6.5,21.9 L1.6,21.9 C0.9,22 0.4,22.5 0.4,23.1 L0.4,23.1 L0.4,23.1 Z"></path>
                            <circle cx="12.9" cy="4.6" r="2.1"></circle>
                        </g>
                    </g>
                    <g transform="translate(145.000000, 20.000000)">
                        <g>
                            <g transform="translate(9.000000, 20.000000)">
                                <path d="M2.7,4.6 C2.7,4.8 2.5,4.9 2.2,4.9 L1.2,4.9 C1,4.9 0.7,4.8 0.7,4.6 L0.7,1.2 C0.7,1 0.9,0.9 1.2,0.9 L2.2,0.9 C2.4,0.9 2.7,1 2.7,1.2 L2.7,4.6 L2.7,4.6 Z" fill="#754C29"></path>
                                <path d="M2.3,0.8 C2.1,0.8 1.9,1 1.9,1.1 L1.9,4.5 C1.9,4.7 2.1,4.8 2.3,4.8 C2.5,4.8 2.7,4.7 2.7,4.5 L2.7,1.1 C2.7,1 2.5,0.9 2.3,0.8 L2.3,0.8 Z" fill="#603913"></path>
                            </g>
                            <g>
                                <path d="M0.5,21.7 L10.8,8.4 L21.1,21.7 L10.8,21.7 C3.6,21.6 0.5,21.7 0.5,21.7 L0.5,21.7 Z" fill="#24AE5F"></path>
                                <path d="M10.8,8.4 L4.9,16 C6.1,15.8 8.4,15.7 11,16 C13.8,16.3 16.3,16.9 17.8,17.3 L10.8,8.4 L10.8,8.4 Z" fill="#209452"></path>
                                <path d="M2.8,15.6 L10.8,4.8 L18.8,15.6 C18.8,15.6 14.8,15.5 10.8,15.5 C6.8,15.5 2.8,15.6 2.8,15.6 L2.8,15.6 Z" fill="#24AE5F"></path>
                                <path d="M10.8,4.8 L7.5,9.3 C8.4,9.1 9.6,9.1 10.7,9.1 C12.3,9.2 13.9,9.8 14.9,10.3 L10.8,4.8 L10.8,4.8 Z" fill="#209452"></path>
                                <path d="M5.5,8.7 L10.7,0.5 L15.9,8.7 L10.7,8.7 L5.5,8.7 L5.5,8.7 Z" fill="#24AE5F"></path>
                            </g>
                        </g>
                        <g transform="translate(2.000000, 8.000000)" fill="#FFFFFF">
                            <path d="M14.1,0.7 C14.1,0.9 13.9,1.1 13.7,1.1 L10.9,1.1 C10.7,1.1 10.5,0.9 10.5,0.7 L10.5,0.7 C10.5,0.5 10.7,0.3 10.9,0.3 L13.7,0.3 C14,0.3 14.1,0.4 14.1,0.7 L14.1,0.7 L14.1,0.7 Z"></path>
                            <path d="M4.3,7.5 C4.3,7.7 4.1,7.9 3.9,7.9 L1.1,7.9 C0.9,7.9 0.7,7.7 0.7,7.5 L0.7,7.5 C0.7,7.3 0.9,7.1 1.1,7.1 L3.9,7.1 C4.1,7.1 4.3,7.3 4.3,7.5 L4.3,7.5 L4.3,7.5 Z"></path>
                            <path d="M12.5,7.7 C12.5,8 12.2,8.3 11.9,8.3 L6.2,8.3 C5.9,8.3 5.6,8 5.6,7.7 L5.6,7.7 C5.6,7.4 5.9,7.1 6.2,7.1 L11.9,7.1 C12.2,7.1 12.5,7.4 12.5,7.7 L12.5,7.7 L12.5,7.7 Z"></path>
                            <circle cx="8.8" cy="8.1" r="0.7"></circle>
                        </g>
                    </g>
                    <g transform="translate(54.000000, 0.000000)">
                        <g transform="translate(0.000000, 1.000000)">
                            <g transform="translate(17.000000, 36.000000)">
                                <path d="M3.5,7 C3.5,7.3 3.1,7.6 2.7,7.6 L0.9,7.6 C0.5,7.6 0.1,7.4 0.1,7 L0.1,0.9 C0.1,0.6 0.5,0.3 0.9,0.3 L2.7,0.3 C3.1,0.3 3.5,0.6 3.5,0.9 L3.5,7 L3.5,7 Z" fill="#754C29"></path>
                                <path d="M2.8,0.4 C2.4,0.4 2.1,0.7 2.1,0.9 L2.1,7 C2.1,7.3 2.4,7.5 2.8,7.6 C3.2,7.6 3.5,7.3 3.5,7 L3.5,0.9 C3.5,0.6 3.2,0.4 2.8,0.4 L2.8,0.4 Z" fill="#603913"></path>
                            </g>
                            <g>
                                <path d="M0.7,37.9 L18.8,14.5 L36.9,37.9 C36.9,37.9 30,37.8 18.8,37.8 C6.3,37.8 0.7,37.9 0.7,37.9 L0.7,37.9 Z" fill="#1E9A54"></path>
                                <path d="M18.8,14.4 L8.4,27.9 C10.4,27.5 14.5,27.4 19.1,27.9 C24.1,28.4 28.5,29.4 31,30.2 L18.8,14.4 L18.8,14.4 Z" fill="#1D8B4C"></path>
                                <path d="M4.8,27.1 L18.8,8.1 L32.8,27.1 C32.8,27.1 25.7,27 18.8,27 C11.9,27 4.8,27.1 4.8,27.1 L4.8,27.1 Z" fill="#1E9A54"></path>
                                <path d="M18.8,8.1 L13,16 C14.6,15.6 16.6,15.6 18.6,15.7 C21.4,15.9 24.2,16.9 26,17.8 L18.8,8.1 L18.8,8.1 Z" fill="#1D8B4C"></path>
                                <path d="M9.7,15 L18.9,0.6 L28,15 L18.8,15 L9.7,15 L9.7,15 Z" fill="#1E9A54"></path>
                            </g>
                        </g>
                        <g transform="translate(7.000000, 0.000000)" fill="#FFFFFF">
                            <g transform="translate(7.000000, 0.000000)">
                                <path d="M7.9,7.3 C7.4,7.6 6.6,7.5 6.3,6.9 L3.6,2.7 C3.3,2.2 3.4,1.4 4,1.1 L4,1.1 C4.5,0.8 5.3,0.9 5.6,1.5 L8.3,5.7 C8.6,6.3 8.5,7 7.9,7.3 L7.9,7.3 L7.9,7.3 Z"></path>
                                <path d="M1.2,7.2 C0.7,6.8 0.5,6.1 0.9,5.6 L3.7,1.5 C4.1,1 4.8,0.8 5.3,1.2 L5.3,1.2 C5.8,1.6 6,2.3 5.6,2.8 L2.8,6.9 C2.5,7.4 1.8,7.6 1.2,7.2 L1.2,7.2 L1.2,7.2 Z"></path>
                            </g>
                            <path d="M7.7,27.8 C7.7,28.4 7.2,29 6.5,29 L1.6,29 C1,29 0.4,28.5 0.4,27.8 L0.4,27.8 C0.4,27.2 0.9,26.6 1.6,26.6 L6.5,26.6 C7.2,26.7 7.7,27.2 7.7,27.8 L7.7,27.8 L7.7,27.8 Z"></path>
                            <circle cx="11.6" cy="5.1" r="2.1"></circle>
                            <path d="M19.6,16.1 C19.6,16.8 19,17.5 18.2,17.5 L5.3,17.5 C4.6,17.5 3.9,16.9 3.9,16.1 L3.9,16.1 C3.9,15.4 4.5,14.7 5.3,14.7 L18.2,14.7 C19,14.7 19.6,15.3 19.6,16.1 L19.6,16.1 L19.6,16.1 Z"></path>
                            <circle cx="11.2" cy="16.9" r="1.7"></circle>
                            <path d="M30.2,38.4 C30.2,39.1 29.6,39.8 28.8,39.8 L15.9,39.8 C15.2,39.8 14.5,39.2 14.5,38.4 L14.5,38.4 C14.5,37.7 15.1,37 15.9,37 L28.8,37 C29.6,37 30.2,37.6 30.2,38.4 L30.2,38.4 L30.2,38.4 Z"></path>
                            <circle cx="27.1" cy="39.2" r="1.7"></circle>
                        </g>
                    </g>
                    <g transform="translate(30.000000, 21.000000)">
                        <g>
                            <g transform="translate(9.000000, 20.000000)">
                                <path d="M2.8,4.3 C2.8,4.5 2.6,4.6 2.3,4.6 L1.3,4.6 C1.1,4.6 0.8,4.5 0.8,4.3 L0.8,0.9 C0.8,0.7 1,0.6 1.3,0.6 L2.3,0.6 C2.5,0.6 2.8,0.7 2.8,0.9 L2.8,4.3 L2.8,4.3 Z" fill="#754C29"></path>
                                <path d="M2.4,0.5 C2.2,0.5 2,0.7 2,0.8 L2,4.2 C2,4.4 2.2,4.5 2.4,4.5 C2.6,4.5 2.8,4.4 2.8,4.2 L2.8,0.8 C2.8,0.7 2.6,0.5 2.4,0.5 L2.4,0.5 Z" fill="#603913"></path>
                            </g>
                            <g>
                                <path d="M0.6,21.3 L10.9,8 L21.2,21.3 L10.9,21.3 L0.6,21.3 L0.6,21.3 Z" fill="#24AE5F"></path>
                                <path d="M10.8,8.1 L4.9,15.7 C6.1,15.5 8.4,15.4 11,15.7 C13.8,16 16.3,16.6 17.8,17 L10.8,8.1 L10.8,8.1 Z" fill="#209452"></path>
                                <path d="M2.9,15.2 L10.9,4.4 L18.9,15.2 C18.9,15.2 14.9,15.1 10.9,15.1 C6.9,15.2 2.9,15.2 2.9,15.2 L2.9,15.2 Z" fill="#24AE5F"></path>
                                <path d="M10.8,4.4 L7.5,8.9 C8.4,8.7 9.6,8.7 10.7,8.7 C12.3,8.8 13.9,9.4 14.9,9.9 L10.8,4.4 L10.8,4.4 Z" fill="#209452"></path>
                                <path d="M5.6,8.4 L10.8,0.2 L16,8.4 L10.8,8.4 L5.6,8.4 L5.6,8.4 Z" fill="#24AE5F"></path>
                            </g>
                        </g>
                        <g transform="translate(2.000000, 7.000000)" fill="#FFFFFF">
                            <path d="M14.2,1.3 C14.2,1.5 14,1.7 13.8,1.7 L11,1.7 C10.8,1.7 10.6,1.5 10.6,1.3 L10.6,1.3 C10.6,1.1 10.8,0.9 11,0.9 L13.8,0.9 C14,0.9 14.2,1.1 14.2,1.3 L14.2,1.3 L14.2,1.3 Z"></path>
                            <path d="M4.3,8.2 C4.3,8.4 4.1,8.6 3.9,8.6 L1.1,8.6 C0.9,8.6 0.7,8.4 0.7,8.2 L0.7,8.2 C0.7,8 0.9,7.8 1.1,7.8 L3.9,7.8 C4.2,7.8 4.3,8 4.3,8.2 L4.3,8.2 L4.3,8.2 Z"></path>
                            <path d="M12.6,8.4 C12.6,8.7 12.3,9 12,9 L6.3,9 C6,9 5.7,8.7 5.7,8.4 L5.7,8.4 C5.7,8.1 6,7.8 6.3,7.8 L12,7.8 C12.3,7.8 12.6,8.1 12.6,8.4 L12.6,8.4 L12.6,8.4 Z"></path>
                            <circle cx="8.9" cy="8.8" r="0.7"></circle>
                        </g>
                    </g>
                    <g transform="translate(0.000000, 8.000000)">
                        <g transform="translate(0.000000, 1.000000)">
                            <g transform="translate(14.000000, 30.000000)">
                                <path d="M3.1,6.1 C3.1,6.4 2.8,6.6 2.4,6.6 L0.8,6.6 C0.4,6.6 0.1,6.4 0.1,6.1 L0.1,0.9 C0.1,0.6 0.4,0.4 0.8,0.4 L2.4,0.4 C2.8,0.4 3.1,0.6 3.1,0.9 L3.1,6.1 L3.1,6.1 Z" fill="#754C29"></path>
                                <path d="M2.6,0.5 C2.3,0.5 2,0.7 2,1 L2,6.2 C2,6.4 2.3,6.6 2.6,6.7 C2.9,6.7 3.2,6.5 3.2,6.2 L3.2,1 C3.1,0.7 2.9,0.5 2.6,0.5 L2.6,0.5 Z" fill="#603913"></path>
                            </g>
                            <g>
                                <path d="M0.3,31.7 L15.7,11.7 L31.1,31.7 C31.1,31.7 25.2,31.6 15.7,31.6 C5,31.7 0.3,31.7 0.3,31.7 L0.3,31.7 Z" fill="#65B75C"></path>
                                <path d="M15.7,11.8 L6.8,23.3 C8.5,23 12,22.9 15.9,23.3 C20.1,23.7 23.9,24.6 26.1,25.3 L15.7,11.8 L15.7,11.8 Z" fill="#209452"></path>
                                <path d="M3.7,22.6 L15.6,6.4 L27.5,22.6 C27.5,22.6 21.5,22.5 15.6,22.5 C9.8,22.4 3.7,22.6 3.7,22.6 L3.7,22.6 Z" fill="#65B75C"></path>
                                <path d="M15.7,6.3 L10.7,13.1 C12.1,12.8 13.8,12.7 15.5,12.8 C17.9,13 20.3,13.8 21.8,14.6 L15.7,6.3 L15.7,6.3 Z" fill="#209452"></path>
                                <path d="M7.9,12.3 L15.7,0 L23.5,12.3 L15.7,12.3 C11.8,12.2 7.9,12.3 7.9,12.3 L7.9,12.3 Z" fill="#65B75C"></path>
                            </g>
                        </g>
                        <g transform="translate(11.000000, 0.000000)" fill="#FFFFFF">
                            <path d="M6.09253416,6.07727536 L6.3,6.4 C6.6,7 7.4,7.1 7.9,6.8 C8.5,6.5 8.6,5.8 8.3,5.2 L5.6,1 C5.3,0.4 4.5,0.3 4,0.6 C3.68941653,0.755291737 3.51280818,1.04455861 3.45630482,1.35683938 L0.9,5.1 C0.5,5.6 0.7,6.3 1.2,6.7 C1.8,7.1 2.5,6.9 2.8,6.4 L3.05667829,6.02414964 C3.44036096,6.43973202 3.98978606,6.7 4.6,6.7 C5.18377969,6.7 5.71192316,6.46179304 6.09253416,6.07727536 Z"></path>
                            <path d="M17,23.1 C17,23.7 16.5,24.3 15.8,24.3 L10.9,24.3 C10.3,24.3 9.7,23.8 9.7,23.1 L9.7,23.1 C9.7,22.5 10.2,21.9 10.9,21.9 L15.8,21.9 C16.5,22 17,22.5 17,23.1 L17,23.1 L17,23.1 Z"></path>
                        </g>
                    </g>
                    <g transform="translate(270.000000, 0.000000)">
                        <g transform="translate(0.000000, 1.000000)">
                            <g transform="translate(16.000000, 36.000000)">
                                <path d="M4,7 C4,7.3 3.6,7.6 3.2,7.6 L1.4,7.6 C1,7.6 0.6,7.4 0.6,7 L0.6,0.9 C0.6,0.6 1,0.3 1.4,0.3 L3.2,0.3 C3.6,0.3 4,0.6 4,0.9 L4,7 L4,7 Z" fill="#754C29"></path>
                                <path d="M3.3,0.4 C2.9,0.4 2.6,0.7 2.6,0.9 L2.6,7 C2.6,7.3 2.9,7.5 3.3,7.6 C3.7,7.6 4,7.3 4,7 L4,0.9 C4,0.6 3.7,0.4 3.3,0.4 L3.3,0.4 Z" fill="#603913"></path>
                            </g>
                            <g>
                                <path d="M0.2,37.9 L18.3,14.5 L36.4,37.9 C36.4,37.9 29.5,37.8 18.3,37.8 C5.8,37.8 0.2,37.9 0.2,37.9 L0.2,37.9 Z" fill="#1E9A54"></path>
                                <path d="M18.3,14.4 L7.9,27.9 C9.9,27.5 14,27.4 18.6,27.9 C23.6,28.4 28,29.4 30.5,30.2 L18.3,14.4 L18.3,14.4 Z" fill="#1D8B4C"></path>
                                <path d="M4.3,27.1 L18.3,8.1 L32.3,27.1 C32.3,27.1 25.2,27 18.3,27 C11.4,27 4.3,27.1 4.3,27.1 L4.3,27.1 Z" fill="#1E9A54"></path>
                                <path d="M18.3,8.1 L12.5,16 C14.1,15.6 16.1,15.6 18.1,15.7 C20.9,15.9 23.7,16.9 25.5,17.8 L18.3,8.1 L18.3,8.1 Z" fill="#1D8B4C"></path>
                                <path d="M9.2,15 L18.4,0.6 L27.6,15 L18.4,15 L9.2,15 L9.2,15 Z" fill="#1E9A54"></path>
                            </g>
                        </g>
                        <g transform="translate(6.000000, 0.000000)" fill="#FFFFFF">
                            <g transform="translate(8.000000, 0.000000)">
                                <path d="M7.4,7.3 C6.9,7.6 6.1,7.5 5.8,6.9 L3.1,2.7 C2.8,2.2 2.9,1.4 3.5,1.1 L3.5,1.1 C4,0.8 4.8,0.9 5.1,1.5 L7.8,5.7 C8.1,6.3 8,7 7.4,7.3 L7.4,7.3 L7.4,7.3 Z"></path>
                                <path d="M0.7,7.2 C0.2,6.8 -6.0368377e-14,6.1 0.4,5.6 L3.2,1.5 C3.6,1 4.3,0.8 4.8,1.2 L4.8,1.2 C5.3,1.6 5.5,2.3 5.1,2.8 L2.3,6.9 C2,7.4 1.2,7.6 0.7,7.2 L0.7,7.2 L0.7,7.2 Z"></path>
                            </g>
                            <path d="M8.2,27.8 C8.2,28.4 7.7,29 7,29 L2.1,29 C1.5,29 0.9,28.5 0.9,27.8 L0.9,27.8 C0.9,27.2 1.4,26.6 2.1,26.6 L7,26.6 C7.7,26.7 8.2,27.2 8.2,27.8 L8.2,27.8 L8.2,27.8 Z"></path>
                            <circle cx="12.1" cy="5.1" r="2.1"></circle>
                            <path d="M20.1,16.1 C20.1,16.8 19.5,17.5 18.7,17.5 L5.8,17.5 C5.1,17.5 4.4,16.9 4.4,16.1 L4.4,16.1 C4.4,15.4 5,14.7 5.8,14.7 L18.7,14.7 C19.5,14.7 20.1,15.3 20.1,16.1 L20.1,16.1 L20.1,16.1 Z"></path>
                            <circle cx="11.7" cy="16.9" r="1.7"></circle>
                            <path d="M30.7,38.4 C30.7,39.1 30.1,39.8 29.3,39.8 L16.4,39.8 C15.7,39.8 15,39.2 15,38.4 L15,38.4 C15,37.7 15.6,37 16.4,37 L29.3,37 C30.1,37 30.7,37.6 30.7,38.4 L30.7,38.4 L30.7,38.4 Z"></path>
                            <circle cx="27.6" cy="39.2" r="1.7"></circle>
                        </g>
                    </g>
                    <g transform="translate(272.000000, 20.000000)">
                        <g>
                            <g transform="translate(10.000000, 20.000000)">
                                <path d="M2,4.6 C2,4.8 1.8,4.9 1.5,4.9 L0.5,4.9 C0.3,4.9 0,4.8 0,4.6 L0,1.2 C0,1 0.2,0.9 0.5,0.9 L1.5,0.9 C1.7,0.9 2,1 2,1.2 L2,4.6 L2,4.6 Z" fill="#754C29"></path>
                                <path d="M1.6,0.8 C1.4,0.8 1.2,1 1.2,1.1 L1.2,4.5 C1.2,4.7 1.4,4.8 1.6,4.8 C1.8,4.8 2,4.7 2,4.5 L2,1.1 C2,1 1.8,0.9 1.6,0.8 L1.6,0.8 Z" fill="#603913"></path>
                            </g>
                            <g>
                                <path d="M0.7,21.7 L11,8.4 L21.3,21.7 L11,21.7 C3.9,21.6 0.7,21.7 0.7,21.7 L0.7,21.7 Z" fill="#24AE5F"></path>
                                <path d="M11,8.4 L5.1,16 C6.3,15.8 8.6,15.7 11.2,16 C14,16.3 16.5,16.9 18,17.3 L11,8.4 L11,8.4 Z" fill="#209452"></path>
                                <path d="M3,15.6 L11,4.8 L19,15.6 C19,15.6 15,15.5 11,15.5 C7.1,15.5 3,15.6 3,15.6 L3,15.6 Z" fill="#24AE5F"></path>
                                <path d="M11,4.8 L7.7,9.3 C8.6,9.1 9.8,9.1 10.9,9.1 C12.5,9.2 14.1,9.8 15.1,10.3 L11,4.8 L11,4.8 Z" fill="#209452"></path>
                                <path d="M5.8,8.7 L11,0.5 L16.2,8.7 L11,8.7 L5.8,8.7 L5.8,8.7 Z" fill="#24AE5F"></path>
                            </g>
                        </g>
                        <g transform="translate(2.000000, 8.000000)" fill="#FFFFFF">
                            <path d="M14.4,0.7 C14.4,0.9 14.2,1.1 14,1.1 L11.2,1.1 C11,1.1 10.8,0.9 10.8,0.7 L10.8,0.7 C10.8,0.5 11,0.3 11.2,0.3 L14,0.3 C14.2,0.3 14.4,0.4 14.4,0.7 L14.4,0.7 L14.4,0.7 Z"></path>
                            <path d="M4.5,7.5 C4.5,7.7 4.3,7.9 4.1,7.9 L1.3,7.9 C1.1,7.9 0.9,7.7 0.9,7.5 L0.9,7.5 C0.9,7.3 1.1,7.1 1.3,7.1 L4.1,7.1 C4.3,7.1 4.5,7.3 4.5,7.5 L4.5,7.5 L4.5,7.5 Z"></path>
                            <path d="M12.8,7.7 C12.8,8 12.5,8.3 12.2,8.3 L6.5,8.3 C6.2,8.3 5.9,8 5.9,7.7 L5.9,7.7 C5.9,7.4 6.2,7.1 6.5,7.1 L12.2,7.1 C12.5,7.1 12.8,7.4 12.8,7.7 L12.8,7.7 L12.8,7.7 Z"></path>
                            <circle cx="9.1" cy="8.1" r="0.7"></circle>
                        </g>
                    </g>
                    <g transform="translate(253.000000, 8.000000)">
                        <g transform="translate(0.000000, 1.000000)">
                            <g transform="translate(14.000000, 30.000000)">
                                <path d="M0.6,6.1 C0.6,6.4 0.9,6.6 1.3,6.6 L2.9,6.6 C3.3,6.6 3.6,6.4 3.6,6.1 L3.6,0.9 C3.6,0.6 3.3,0.4 2.9,0.4 L1.3,0.4 C0.9,0.4 0.6,0.6 0.6,0.9 L0.6,6.1 L0.6,6.1 Z" fill="#754C29"></path>
                                <path d="M1.2,0.5 C1.5,0.5 1.8,0.7 1.8,1 L1.8,6.2 C1.8,6.4 1.5,6.6 1.2,6.7 C0.9,6.7 0.6,6.5 0.6,6.2 L0.6,1 C0.6,0.7 0.8,0.5 1.2,0.5 L1.2,0.5 Z" fill="#603913"></path>
                            </g>
                            <g>
                                <path d="M31.4,31.7 L16,11.7 L0.6,31.7 C0.6,31.7 6.5,31.6 16,31.6 C26.7,31.7 31.4,31.7 31.4,31.7 L31.4,31.7 Z" fill="#65B75C"></path>
                                <path d="M16,11.8 L24.9,23.3 C23.2,23 19.7,22.9 15.8,23.3 C11.6,23.7 7.8,24.6 5.6,25.3 L16,11.8 L16,11.8 Z" fill="#209452"></path>
                                <path d="M28,22.6 L16,6.3 L4.1,22.5 C4.1,22.5 10.1,22.4 16,22.4 C21.9,22.4 28,22.6 28,22.6 L28,22.6 Z" fill="#65B75C"></path>
                                <path d="M16,6.3 L21,13.1 C19.6,12.8 17.9,12.7 16.2,12.8 C13.8,13 11.4,13.8 9.9,14.6 L16,6.3 L16,6.3 Z" fill="#209452"></path>
                                <path d="M23.8,12.3 L16,0 L8.2,12.3 L16,12.3 C19.9,12.2 23.8,12.3 23.8,12.3 L23.8,12.3 Z" fill="#65B75C"></path>
                            </g>
                        </g>
                        <g transform="translate(3.000000, 0.000000)" fill="#FFFFFF">
                            <g transform="translate(9.000000, 0.000000)">
                                <path d="M0.8,6.8 C1.3,7.1 2.1,7 2.4,6.4 L5.1,2.2 C5.4,1.7 5.3,0.9 4.7,0.6 L4.7,0.6 C4.2,0.3 3.4,0.4 3.1,1 L0.4,5.2 C0.1,5.8 0.2,6.5 0.8,6.8 L0.8,6.8 L0.8,6.8 Z"></path>
                                <path d="M7.5,6.7 C8,6.3 8.2,5.6 7.8,5.1 L5,1 C4.6,0.5 3.9,0.3 3.4,0.7 L3.4,0.7 C2.9,1.1 2.7,1.8 3.1,2.3 L5.9,6.4 C6.2,6.9 7,7.1 7.5,6.7 L7.5,6.7 L7.5,6.7 Z"></path>
                            </g>
                            <path d="M0.7,23.1 C0.7,23.7 1.2,24.3 1.9,24.3 L6.8,24.3 C7.4,24.3 8,23.8 8,23.1 L8,23.1 C8,22.5 7.5,21.9 6.8,21.9 L1.9,21.9 C1.2,22 0.7,22.5 0.7,23.1 L0.7,23.1 L0.7,23.1 Z"></path>
                            <circle cx="13.1" cy="4.6" r="2.1"></circle>
                        </g>
                    </g>
                    <g transform="translate(156.000000, 0.000000)">
                        <g transform="translate(0.000000, 1.000000)">
                            <g transform="translate(16.000000, 36.000000)">
                                <path d="M0.7,7 C0.7,7.3 1.1,7.6 1.5,7.6 L3.3,7.6 C3.7,7.6 4.1,7.4 4.1,7 L4.1,0.9 C4.1,0.6 3.7,0.3 3.3,0.3 L1.5,0.3 C1.1,0.3 0.7,0.6 0.7,0.9 L0.7,7 L0.7,7 Z" fill="#754C29"></path>
                                <path d="M1.3,0.4 C1.7,0.4 2,0.7 2,0.9 L2,7 C2,7.3 1.7,7.5 1.3,7.6 C0.9,7.6 0.6,7.3 0.6,7 L0.6,0.9 C0.7,0.6 1,0.4 1.3,0.4 L1.3,0.4 Z" fill="#603913"></path>
                            </g>
                            <g>
                                <path d="M36.4,37.9 L18.3,14.5 L0.2,37.9 C0.2,37.9 7.1,37.8 18.3,37.8 C30.9,37.8 36.4,37.9 36.4,37.9 L36.4,37.9 Z" fill="#1E9A54"></path>
                                <path d="M18.4,14.4 L28.8,27.9 C26.8,27.5 22.7,27.4 18.1,27.9 C13.1,28.4 8.7,29.4 6.2,30.2 L18.4,14.4 L18.4,14.4 Z" fill="#1D8B4C"></path>
                                <path d="M32.4,27.1 L18.4,8.1 L4.4,27.1 C4.4,27.1 11.5,27 18.4,27 C25.3,27 32.4,27.1 32.4,27.1 L32.4,27.1 Z" fill="#1E9A54"></path>
                                <path d="M18.4,8.1 L24.2,16 C22.6,15.6 20.6,15.6 18.6,15.7 C15.8,15.9 13,16.9 11.2,17.8 L18.4,8.1 L18.4,8.1 Z" fill="#1D8B4C"></path>
                                <path d="M27.5,15 L18.3,0.6 L9.1,15 L18.3,15 L27.5,15 L27.5,15 Z" fill="#1E9A54"></path>
                            </g>
                        </g>
                        <g fill="#FFFFFF">
                            <g transform="translate(14.000000, 0.000000)">
                                <path d="M1.3,7.3 C1.8,7.6 2.6,7.5 2.9,6.9 L5.6,2.7 C5.9,2.2 5.8,1.4 5.2,1.1 L5.2,1.1 C4.7,0.8 3.9,0.9 3.6,1.5 L0.9,5.7 C0.6,6.3 0.7,7 1.3,7.3 L1.3,7.3 L1.3,7.3 Z"></path>
                                <path d="M8,7.2 C8.5,6.8 8.7,6.1 8.3,5.6 L5.5,1.5 C5.1,1 4.4,0.8 3.9,1.2 L3.9,1.2 C3.4,1.6 3.2,2.3 3.6,2.8 L6.4,6.9 C6.7,7.4 7.4,7.6 8,7.2 L8,7.2 L8,7.2 Z"></path>
                            </g>
                            <path d="M22.5,27.8 C22.5,28.4 23,29 23.7,29 L28.6,29 C29.2,29 29.8,28.5 29.8,27.8 L29.8,27.8 C29.8,27.2 29.3,26.6 28.6,26.6 L23.7,26.6 C23,26.7 22.5,27.2 22.5,27.8 L22.5,27.8 L22.5,27.8 Z"></path>
                            <circle cx="18.6" cy="5.1" r="2.1"></circle>
                            <path d="M0,38.4 C0,39.1 0.6,39.8 1.4,39.8 L14.3,39.8 C15,39.8 15.7,39.2 15.7,38.4 L15.7,38.4 C15.7,37.7 15.1,37 14.3,37 L1.4,37 C0.6,37 0,37.6 0,38.4 L0,38.4 L0,38.4 Z"></path>
                            <circle cx="3.1" cy="39.2" r="1.7"></circle>
                        </g>
                    </g>
                </g>
                <g id="gound" transform="translate(0.000000, 162.000000)">
                    <rect fill="#2D313B" x="6.7" y="6" width="329.3" height="20"></rect>
                    <rect fill="#FFFFFF" x="1.9" y="2.6" width="334" height="4"></rect>
                    <path d="M55.3,5.3 C55.3,7.5 53.5,9.3 51.3,9.3 L4,9.3 C1.8,9.3 -2.84217094e-14,7.5 -2.84217094e-14,5.3 L-2.84217094e-14,5.3 C-2.84217094e-14,3.1 1.8,1.3 4,1.3 L51.3,1.3 C53.5,1.3 55.3,3.1 55.3,5.3 L55.3,5.3 L55.3,5.3 Z" fill="#FFFFFF"></path>
                    <path d="M104.7,5.3 C104.7,7.9 102.6,10 100,10 L75.3,10 C72.7,10 70.6,7.9 70.6,5.3 L70.6,5.3 C70.6,2.7 72.7,0.6 75.3,0.6 L100,0.6 C102.6,0.7 104.7,2.8 104.7,5.3 L104.7,5.3 L104.7,5.3 Z" fill="#FFFFFF"></path>
                    <path d="M339,5 C339,6.9 337.4,8.5 335.5,8.5 L128,8.5 C126.1,8.5 124.5,6.9 124.5,5 L124.5,5 C124.5,3.1 126.1,1.5 128,1.5 L335.5,1.5 C337.4,1.5 339,3.1 339,5 L339,5 L339,5 Z" fill="#FFFFFF"></path>
                    <circle fill="#FFFFFF" cx="48.5" cy="8.5" r="6"></circle>
                    <circle fill="#FFFFFF" cx="40.2" cy="8.7" r="4.5"></circle>
                    <circle fill="#FFFFFF" cx="196.8" cy="8.5" r="6"></circle>
                    <circle fill="#FFFFFF" cx="188.5" cy="8.7" r="4.5"></circle>
                    <circle fill="#FFFFFF" cx="127.3" cy="6.2" r="4.7"></circle>
                    <circle fill="#FFFFFF" cx="165.7" cy="6.9" r="5.4"></circle>
                    <circle fill="#FFFFFF" cx="299" cy="8.7" r="4.5"></circle>
                    <circle fill="#FFFFFF" cx="237.8" cy="6.2" r="4.7"></circle>
                    <circle fill="#FFFFFF" cx="276.2" cy="6.9" r="5.4"></circle>
                    <circle fill="#FFFFFF" cx="82.7" cy="6.9" r="5.4"></circle>
                </g>
                <g id="sled" transform="translate(249.000000, 136.000000)">
                    <rect fill="#E4BE21" x="25.9" y="24.3" width="1.1" height="2.7"></rect>
                    <g transform="translate(7.000000, 0.000000)">
                        <ellipse fill="#B33F30" transform="translate(13.203770, 13.527650) rotate(-59.262250) translate(-13.203770, -13.527650) " cx="13.20377" cy="13.52765" rx="9.09983374" ry="9.89981913"></ellipse>
                        <path d="M17.9,5.7 C14.8,3.8 11.1,3.8 8.2,5.2 C7,5.9 6.1,6.9 5.3,8.1 C2.7,12.4 4.4,18.2 9.1,21 C12.2,22.9 15.9,22.9 18.8,21.5 C20,20.8 20.9,19.8 21.7,18.6 C24.3,14.2 22.6,8.4 17.9,5.7 L17.9,5.7 Z" fill="#E54938"></path>
                        <path d="M7,8.5 C7,8.5 5.8,8.6 5.3,9.2 C4.8,9.8 5.4,9.6 5.7,9.3 C6,9 6.5,8.7 7,8.5 L7,8.5 Z" fill="#B33F30"></path>
                        <path d="M7.1,8.6 C7.1,8.6 6.3,8.9 6.1,9.4 C5.9,9.8 6.2,9.7 6.4,9.4 C6.5,9.1 6.8,8.8 7.1,8.6 L7.1,8.6 Z" fill="#B33F30"></path>
                        <path d="M2.1,6.1 L1.9,6.3 C1.9,6.3 1.8,6.4 1.9,6.5 L1.9,6.5 L1.9,6.5 L1.9,6.5 C1.9,6.7 2.1,6.8 2.2,6.8 L6.9,8.1 L6.9,8.1 L7,8.1 L7,8.1 L7,8.1 L7,8.1 L7,8.1 L7,8.1 L7,8.1 L7,8.1 L7,8.1 L7,8.1 L7,8.1 L7,8 L7,8 L5.8,3.2 L5.8,3.1 L5.8,3.1 L5.8,3.1 L5.8,3.1 L5.8,3.1 L5.8,3.1 L5.8,3.1 L5.8,3.1 C5.7,3 5.5,2.9 5.4,3 L5.1,3.3 L2.1,6.1 L2.1,6.1 Z" fill="#B33F30"></path>
                        <path d="M7.3,8.6 C7.3,8.6 6.8,10.3 7.3,11.3 C7.8,12.3 8,11.5 7.7,10.8 C7.3,10.2 7.3,9.4 7.3,8.6 L7.3,8.6 Z" fill="#B33F30"></path>
                        <path d="M7.5,8.6 C7.5,8.6 7.6,9.6 8,10 C8.5,10.4 8.4,9.9 8.1,9.7 C7.8,9.5 7.6,9 7.5,8.6 L7.5,8.6 Z" fill="#B33F30"></path>
                        <path d="M7.6,8.1 C7.6,8.1 8.5,7 9.3,6.9 C10.1,6.8 9.7,7.2 9.2,7.3 C8.7,7.4 8.1,7.8 7.6,8.1 L7.6,8.1 Z" fill="#B33F30"></path>
                        <path d="M7.2,8.1 L7.2,8.1 L7.2,8.1 L7.2,8.1 C7.2,8.1 7.2,8 7.2,8.1 C7.2,8 7.2,8 7.2,8.1 L7.2,7.9 L7.2,7.9 L6,3.1 L6,3 L6,3 L6,3 L6,3 L6,3 L6,3 L6,3 L6,3 C5.9,2.9 5.7,2.8 5.6,2.9 L5.3,3.2 L3.5,5 L7.2,8.1 L7.2,8.1 Z" fill="#E54938"></path>
                        <path d="M7.3,8.8 C7.2,8.8 7,8.7 7,8.7 L7,8.6 L7.1,8.6 C7.1,8.6 7.2,8.7 7.3,8.7 C7.4,8.7 7.4,8.7 7.5,8.6 C7.7,8.4 7.5,8.2 7.5,8.2 L7.5,8.1 L7.6,8.1 C7.7,8.2 7.9,8.5 7.6,8.8 C7.6,8.7 7.5,8.8 7.3,8.8 L7.3,8.8 L7.3,8.8 Z" fill="#FFFFFF"></path>
                        <path d="M7.1,8.6 C6.9,8.6 6.8,8.5 6.7,8.4 L6.7,8.2 L6.9,8.2 C6.9,8.2 7,8.3 7.1,8.3 C7.2,8.3 7.3,8.3 7.3,8.2 C7.5,7.9 7.3,7.7 7.3,7.7 C7.3,7.7 7.2,7.6 7.3,7.5 C7.3,7.5 7.4,7.4 7.5,7.5 C7.6,7.6 7.8,8 7.5,8.3 C7.4,8.5 7.2,8.6 7.1,8.6 L7.1,8.6 L7.1,8.6 Z" fill="#FFFFFF"></path>
                        <path d="M7.2,7.8 C7.2,7.8 6.1,6.9 6,6.1 C5.9,5.3 6.3,5.7 6.4,6.2 C6.5,6.8 6.8,7.3 7.2,7.8 L7.2,7.8 Z" fill="#B33F30"></path>
                        <path d="M6.7,8.4 C6.5,8.4 6.3,8.3 6.2,8.2 C6.1,8.1 6.2,8.1 6.2,8 C6.3,7.9 6.3,8 6.4,8 C6.4,8 6.6,8.1 6.7,8.1 C6.8,8.1 6.9,8.1 7,8 C7.3,7.7 7.1,7.5 7,7.4 C6.9,7.3 6.9,7.3 7,7.2 C7,7.1 7.1,7.1 7.2,7.2 C7.4,7.3 7.6,7.7 7.2,8.2 C7.1,8.3 6.9,8.4 6.7,8.4 L6.7,8.4 L6.7,8.4 Z" fill="#FFFFFF"></path>
                        <path d="M6,2.1 C6.3,2.4 6.3,3 6,3.3 L2.4,6.8 C2.1,7.1 1.5,7.1 1.2,6.8 L1.2,6.8 C0.9,6.5 0.9,5.9 1.2,5.6 L4.8,2.1 C5.2,1.8 5.7,1.8 6,2.1 L6,2.1 L6,2.1 Z" fill="#FFFFFF"></path>
                        <path d="M16.8,8.7 C16.8,8.7 16,14.9 11.1,16.4 C12.4,18.2 15.8,20.5 17.7,19.7 C19.6,19 21.3,16.4 21.3,14.6 C21.3,12.4 18.5,9.2 16.8,8.7 L16.8,8.7 Z" fill="#B33F30"></path>
                        <path d="M11.5,16.6 C11.4,16.6 11.4,16.6 11.5,16.6 L11.4,15.9 L12,16.3 L12,15.6 L12.8,15.9 L12.8,15.2 L13.4,15.5 L13.4,14.7 L14.1,15 L14,14.1 L14.8,14.3 L14.6,13.6 L15.3,13.7 L14.9,12.9 L15.7,13 L15.3,12.2 L16.1,12.1 L15.6,11.4 L16.5,11.2 L16,10.5 L16.9,10.3 L16.3,9.6 L17.1,9.3 L17.2,9.3 L17.2,9.4 L16.5,9.7 L17.2,10.4 L16.3,10.6 L16.8,11.3 L15.9,11.5 L16.4,12.2 L15.6,12.3 L16,13.1 L15.2,13 L15.6,13.8 L14.8,13.7 L15,14.4 L14.2,14.2 L14.3,15.1 L13.6,14.8 L13.7,15.6 L13.1,15.3 L13.1,16 L12.3,15.7 L12.3,16.5 L11.7,16.1 L11.5,16.6 L11.5,16.6 L11.5,16.6 L11.5,16.6 Z" fill="#FED304"></path>
                        <path d="M16.1,20.3 L15.9,19.7 L15.5,20.1 L15.4,19.5 L14.9,19.8 L14.8,19.2 L14.2,19.5 L14.2,18.9 L13.6,19.2 L13.6,18.6 L13,18.8 L13,18.2 L12.5,18.3 L12.6,17.8 L12.1,17.8 L12.1,17.3 L11.6,17.4 L11.8,16.8 L11.9,16.8 C11.9,16.8 11.9,16.8 11.9,16.9 L11.8,17.4 L12.3,17.3 L12.3,17.8 L12.8,17.7 L12.8,18.2 L13.3,18.1 L13.3,18.6 L13.9,18.4 L13.9,19 L14.5,18.8 L14.5,19.4 L15,19.1 L15.1,19.7 L15.6,19.4 L15.7,19.9 L16.1,19.5 L16.3,20.1 L16.7,19.7 L16.8,19.7 L16.8,19.8 L16.1,20.3 L16.1,20.3 Z" fill="#FED304"></path>
                        <path d="M17.6,20.2 L17.1,19.7 L17.1,19.6 L17.2,19.6 L17.6,20 L17.7,19.4 L18.2,19.7 L18.2,19.1 L18.8,19.3 L18.7,18.7 L19.2,18.9 L19.2,18.3 L19.7,18.4 L19.6,17.8 L20.2,17.9 L20,17.3 L20.6,17.2 L20.4,16.6 L21,16.4 L20.7,15.8 L21.2,15.6 L20.8,15.1 L21.3,14.8 L20.8,14.5 L21.4,14.1 L20.8,13.8 L21.2,13.1 L20.4,12.9 L20.7,12.3 L20,12.1 L20.2,11.5 L19.6,11.5 L19.7,10.9 L19.1,11 L19.3,10.4 L18.7,10.5 L18.8,9.9 L18.2,10 L18.3,9.5 L17.7,9.7 L17.7,9.1 L17.3,9.3 L17.2,9.3 L17.2,9.2 L17.7,8.9 L17.7,9.6 L18.3,9.4 L18.1,9.9 L18.7,9.8 L18.6,10.4 L19.3,10.3 L19.1,10.9 L19.7,10.8 L19.6,11.4 L20.3,11.4 L20.1,12.1 L20.8,12.3 L20.5,12.9 L21.3,13.1 L20.9,13.8 L21.6,14.1 L21,14.6 L21.5,15 L21,15.3 L21.4,15.8 L20.9,16 L21.2,16.6 L20.6,16.8 L20.8,17.4 L20.2,17.6 L20.4,18.3 L19.8,18.2 L19.9,18.8 L19.4,18.7 L19.5,19.3 L19,19.1 L19.1,19.7 L18.5,19.5 L18.5,20.1 L17.9,19.8 L17.6,20.2 L17.6,20.2 Z" fill="#FED304"></path>
                    </g>
                    <rect fill="#E4BE21" x="18" y="24.3" width="1.1" height="2.7"></rect>
                    <path d="M36.7,13.3 C36.8,10.7 35,9.9 33,9.9 C31,9.9 28.5,11.4 26.7,14.6 C24.8,17.8 24,18.5 21.5,18.5 C15.5,18.5 16.5,13.3 11.6,13.3 L7.1,13.3 C5.4,13.3 5.9,14.2 5.9,14.8 C5.9,16.2 7,16.3 8.9,16.3 C11.6,16.3 11.7,25.1 18.1,25.1 L26.3,25.1 C30.2,25.1 33,22.3 34.4,20.1 C35.7,18 36.6,15.7 36.7,13.3 L36.7,13.3 Z" fill="#E54938"></path>
                    <path d="M4.3,15.9 C4.3,16.1 4.5,16.3 4.7,16.3 L11.6,16.3 C11.8,16.3 12,16.1 12,15.9 L12,13.7 C12,13.5 11.8,13.3 11.6,13.3 L4.7,13.3 C4.5,13.3 4.3,13.5 4.3,13.7 L4.3,15.9 L4.3,15.9 Z" fill="#E54938"></path>
                    <path d="M21.4,19.1 C23.3,19.1 24.9,18.8 26.5,16.2 C28.2,13.4 30,10.6 33,10.6 C33.3,10.6 33.6,10.3 33.6,10 C33.6,9.7 33.3,9.4 33,9.4 C29.3,9.4 27.3,12.7 25.5,15.6 C24,18 22.8,18 20.7,17.9 L19.9,17.9 C18.4,17.9 17,16.3 15.9,15 C15.3,14.3 14.8,13.8 14.3,13.4 C13.1,12.6 11.7,12.6 10.3,12.7 L9.3,12.7 L4.7,12.7 C4.4,12.7 4.1,13 4.1,13.3 C4.1,13.6 4.4,13.9 4.7,13.9 L9.3,13.9 L10.3,13.9 C11.6,13.9 12.7,13.8 13.6,14.4 C13.9,14.6 14.4,15.2 14.9,15.7 C16.2,17.2 17.7,19 19.8,19 L20.6,19 C20.9,19.1 21.1,19.1 21.4,19.1 L21.4,19.1 Z" fill="#FFFFFF"></path>
                    <path d="M6.1,27.7 L31.8,27.7 C32.2,27.7 32.5,27.4 32.5,27 C32.5,26.6 32.2,26.3 31.8,26.3 L6.1,26.3 C4,26.3 2.3,24.6 2.3,22.5 C2.3,20.4 4,18.7 6.1,18.7 C7.5,18.7 8.7,19.4 9.4,20.6 C9.6,20.9 10,21.1 10.3,20.9 C10.6,20.7 10.8,20.3 10.6,20 C9.7,18.4 8,17.3 6.1,17.3 C3.3,17.3 0.9,19.6 0.9,22.5 C0.9,25.4 3.2,27.7 6.1,27.7 L6.1,27.7 Z" fill="#FED304"></path>
                </g>
                <g id="snowfall" transform="translate(47.000000, 0.000000)" fill="#FFFFFF">
                    <circle cx="133.7" cy="2.4" r="2"></circle>
                    <circle cx="186.5" cy="46.5" r="2"></circle>
                    <circle cx="80.5" cy="86.5" r="2"></circle>
                    <circle cx="2" cy="86" r="2"></circle>
                    <circle cx="153" cy="107.5" r="2"></circle>
                    <circle cx="220" cy="113" r="2"></circle>
                    <circle cx="235.5" cy="44.5" r="2"></circle>
                    <circle cx="27.3" cy="64.1" r="1.4"></circle>
                    <circle cx="97.9" cy="20.6" r="1.6"></circle>
                    <circle cx="132" cy="39.5" r="1.6"></circle>
                    <circle cx="40" cy="29.5" r="1.6"></circle>
                    <circle cx="213" cy="50" r="1.6"></circle>
                    <circle cx="179.5" cy="92.5" r="1.6"></circle>
                    <circle cx="130.5" cy="95.5" r="1.6"></circle>
                    <circle transform="translate(24.611889, 105.010920) rotate(-5.398989) translate(-24.611889, -105.010920) " cx="24.6118888" cy="105.01092" r="1.60005846"></circle>
                    <circle transform="translate(242.519987, 101.508492) rotate(-5.399085) translate(-242.519987, -101.508492) " cx="242.519987" cy="101.508492" r="1.60005871"></circle>
                    <circle cx="67" cy="34.5" r="0.8"></circle>
                    <circle cx="103.9" cy="46.8" r="0.8"></circle>
                    <circle cx="83.4" cy="67.2" r="0.8"></circle>
                    <circle cx="155.3" cy="67.2" r="0.8"></circle>
                    <circle cx="100.5" cy="100" r="0.8"></circle>
                    <circle cx="183" cy="110.2" r="0.8"></circle>
                    <circle cx="55.5" cy="93.3" r="0.8"></circle>
                    <circle cx="204.7" cy="89.5" r="0.8"></circle>
                </g>
            </g>
        </g>
    </g>
</svg>
