<svg width="339" height="188" viewBox="0 0 339 188" xmlns="http://www.w3.org/2000/svg"><title>Group</title><path d="M300.1 180.7l13.8.2c2.7 0 5.1-1.2 7-3.1.1-.1.2-.3.3-.3v-.1c.2-.2.4-.5.6-.8 3.5-4.7 3.7-12 0-16.7L209.3 13.7c-.3-.4-.5-.7-.8-1.1-.9-1-1.9-1.8-3-2.4h-.1c-.5-.3-1.1-.5-1.6-.6-.2 0-.3-.1-.4-.1-.4-.1-.8-.2-1.3-.2-.3-.1-.5-.1-.8-.1-.2 0-.5 0-.8.1-.4 0-.9.1-1.3.2-.1 0-.3.1-.5.1-.5.1-1 .3-1.6.6h-.1c-1.1.5-2.1 1.3-3 2.3-.3.4-.5.7-.8 1.1L77.5 157.1c-.9 1.1-1.6 2.4-2.1 3.7-.2.6-.4 1.3-.6 1.9 0 .2-.1.4-.1.6-.1.5-.1 1-.1 1.5-.1.3-.1.6-.1.9.1.1 0 .1 0 .2v.6c.3 6.5 4.8 11.8 10.3 11.8l17 .2 198.3 2.2z" fill="#333842"/><path d="M209.3 13.7c-.3-.4-.5-.7-.8-1.1-.9-1-1.9-1.8-3-2.4h-.1c-.5-.3-1.1-.5-1.6-.6-.2 0-.3-.1-.4-.1-.4-.1-.8-.2-1.3-.2-.3-.1-.5-.1-.8-.1-.2 0-.5 0-.8.1-.3 0-.5.1-.8.1v170.2l100.4 1.1 13.8.2c2.7 0 5.1-1.2 7-3.1.1-.1.2-.3.3-.3v-.1c.2-.2.4-.5.6-.8 3.5-4.7 3.7-12 0-16.7L209.3 13.7z" fill="#2F333D"/><path d="M196 180.8l10.8.1c2.1 0 4-.9 5.5-2.4l.2-.2c.2-.2.3-.4.5-.7 2.8-3.7 2.9-9.4 0-13.1L124.5 49.6c-.2-.3-.4-.6-.6-.8-.7-.8-1.5-1.4-2.3-1.9-.4-.2-.8-.4-1.2-.5-.1 0-.2-.1-.3-.1-.3-.1-.7-.1-1-.2-.2 0-.4-.1-.7-.1-.2 0-.4 0-.6.1-.3 0-.7.1-1 .1-.1 0-.2.1-.4.1-.4.1-.8.3-1.3.5h-.1c-.8.4-1.7 1-2.4 1.8-.2.3-.4.5-.6.8L20.9 162.3c-.7.9-1.2 1.9-1.6 2.9-.2.5-.3 1-.5 1.5 0 .1-.1.3-.1.4-.1.4-.1.8-.1 1.2-.1.2-.1.4-.1.7v.7c.2 5.1 3.7 9.2 8.1 9.3l13.4.2 156 1.6z" fill="#333842"/><path d="M124.5 49.4c-.2-.3-.4-.6-.6-.8-.7-.8-1.5-1.4-2.3-1.9-.4-.2-.8-.4-1.2-.5-.1 0-.2-.1-.3-.1-.3-.1-.7-.1-1-.2-.2 0-.4-.1-.7-.1-.2 0-.4 0-.6.1-.2 0-.4.1-.6.1v133.9l79 .9 10.8.1c2.1 0 4-.9 5.5-2.4l.2-.2c.2-.2.3-.4.5-.7 2.8-3.7 2.9-9.4 0-13.1L124.5 49.4z" fill="#2F333D"/><g fill="#3C414C"><path d="M132.2 62.5c-1.6 1.5-4.1 1.5-5.6-.1L115 50.3c-1.5-1.6-1.5-4.1.1-5.6s4-1.5 5.6.1l11.7 12.1c1.4 1.6 1.4 4.1-.2 5.6z"/><path d="M103.2 62.5c1.6 1.5 4 1.5 5.6-.1l11.7-12c1.5-1.6 1.5-4-.1-5.6-1.6-1.5-4-1.5-5.6.1l-11.7 12c-1.5 1.6-1.4 4.1.1 5.6zM215.9 24.2c-1.6 1.5-4.1 1.5-5.6-.1L198.6 12c-1.5-1.6-1.5-4.1.1-5.6s4-1.5 5.6.1L216 18.6c1.5 1.6 1.4 4.1-.1 5.6z"/><path d="M186.9 24.1c1.6 1.5 4 1.5 5.6-.1l11.7-12c1.5-1.6 1.5-4-.1-5.6-1.6-1.5-4-1.5-5.6.1l-11.7 12c-1.5 1.6-1.5 4.1.1 5.6z"/></g><g fill="#282C36"><path d="M237.8 160.1l-6.4-8.3-.6-.7c2.1 0 3.6.1 3.6.1l-6.8-9.3-.6-.9h3.4l-7.6-12-7.6 12h3.4l-1.7 2.3-5.7 7.8s1.4 0 3.6-.1l-7 9s5.2-.1 13.7-.1v4.5l.1.1.1.1s.1 0 .1.1h1.9c.4 0 .7-.2.7-.5V160c9.2 0 13.4.1 13.4.1z"/><path d="M256.8 159.7l-6.9-9-.6-.8c2.3 0 3.9.1 3.9.1l-7.4-10-.6-.9h3.6l-8.3-13-8.3 13h3.6l-1.8 2.5-6.2 8.4s1.6 0 3.9-.1l-7.6 9.8s5.6-.1 14.8-.1v4.7c0 .1 0 .1.1.2 0 0 0 .1.1.1 0 0 0 .1.1.1 0 0 .1 0 .1.1h2c.4 0 .7-.2.7-.5v-4.7c10.3 0 14.8.1 14.8.1z"/><path d="M277.3 160.3l-6.1-7.9-.5-.7c2 0 3.4.1 3.4.1l-6.5-8.8-.6-.8h3.2l-7.3-11.4-7.3 11.4h3.2l-1.6 2.2-5.4 7.4s1.4 0 3.4-.1l-6.6 8.6s4.9 0 13-.1v4.3l.1.1.1.1s.1 0 .1.1H263.7c.3 0 .6-.2.6-.4v-4.1c9-.1 13 0 13 0zM148.3 160.1l-6.4-8.3-.6-.7c2.1 0 3.6.1 3.6.1l-6.8-9.3-.6-.8h3.4l-7.6-12-7.6 12h3.4l-1.7 2.3-5.7 7.8s1.4 0 3.6-.1l-7 9s5.2-.1 13.7-.1v4.5l.1.1.1.1s.1 0 .1.1h1.9c.4 0 .7-.2.7-.5V160c9.2 0 13.4.1 13.4.1z"/><path d="M134 159.1l-7.7-9.9-.7-.9c2.6 0 4.3.1 4.3.1l-8.2-11.1-.7-1h4l-9.2-14.4-9.2 14.4h4l-2 2.8-6.9 9.3s1.7 0 4.3-.1l-8.4 10.8s6.2-.1 16.4-.1v5.2c0 .1 0 .1.1.2l.1.1s0 .1.1.1l.1.1h2.3c.4 0 .8-.2.8-.6V159c11.4 0 16.5.1 16.5.1zM174 159.1l-7.7-9.9-.7-.9c2.6 0 4.3.1 4.3.1l-8.2-11.1-.7-1h4l-9.2-14.4-9.2 14.4h4l-2 2.8-6.9 9.3s1.7 0 4.3-.1l-8.4 10.8s6.2-.1 16.4-.1v5.2c0 .1 0 .1.1.2l.1.1s0 .1.1.1l.1.1h2.3c.4 0 .8-.2.8-.6V159c11.4 0 16.5.1 16.5.1zM76 159.1l-7.7-9.9-.7-.9c2.6 0 4.3.1 4.3.1l-8.2-11.1-.7-1h4l-9.2-14.4-9.2 14.4h4l-2 2.8-6.9 9.3s1.7 0 4.3-.1l-8.4 10.8s6.2-.1 16.4-.1v5.2c0 .1 0 .1.1.2l.1.1s0 .1.1.1l.1.1h2.3c.4 0 .8-.2.8-.6V159c11.4 0 16.5.1 16.5.1z"/><path d="M96.3 159.7l-6.8-8.8-.6-.8c2.3 0 3.8.1 3.8.1l-7.3-9.9-.6-.9h3.6l-8.1-12.8-8.1 12.8h3.6l-1.8 2.4-6.1 8.3s1.5 0 3.8-.1l-7.4 9.6s5.5-.1 14.6-.1v4.6c0 .1 0 .1.1.2 0 0 0 .1.1.1l.1.1s.1 0 .1.1h2c.4 0 .7-.2.7-.5v-4.6c9.8.2 14.3.2 14.3.2zM223 159.1l-7.7-9.9-.7-.9c2.6 0 4.3.1 4.3.1l-8.2-11.1-.7-1h4l-9.2-14.4-9.2 14.4h4l-2 2.8-6.9 9.3s1.7 0 4.3-.1l-8.4 10.8s6.2-.1 16.4-.1v5.2c0 .1 0 .1.1.2l.1.1s0 .1.1.1l.1.1h2.3c.4 0 .8-.2.8-.6V159c11.4 0 16.5.1 16.5.1zM264.5 160.1l6.4-8.3.6-.7c-2.1 0-3.6.1-3.6.1l6.8-9.3.6-.8h-3.4l7.6-12 7.6 12h-3.4l1.7 2.3 5.7 7.8s-1.4 0-3.6-.1l7 9s-5.2-.1-13.7-.1v4.5l-.1.1-.1.1s-.1 0-.1.1h-.2-.1-1.6c-.4 0-.7-.2-.7-.5V160c-9.2 0-13.4.1-13.4.1z"/><path d="M279.3 159.1l7.7-9.9.7-.9c-2.6 0-4.3.1-4.3.1l8.2-11.1.7-1h-4l9.2-14.4 9.2 14.4h-4l2 2.8 6.9 9.3s-1.7 0-4.3-.1l8.4 10.8s-6.2-.1-16.4-.1v5.2c0 .1 0 .1-.1.2l-.1.1s0 .1-.1.1l-.1.1h-2.3c-.4 0-.8-.2-.8-.6V159c-11.4 0-16.5.1-16.5.1z"/></g><path fill="#E54938" d="M128.3 128.9h5.6v9.6h-5.6z"/><g fill="#FFF" transform="translate(127 128)"><path d="M7.5 1.4c0 .6-.4 1-.8 1H1.5c-.5 0-.8-.5-.8-1 0-.6.4-1 .8-1h5.2c.4 0 .8.4.8 1z"/><circle cx="1.9" cy="1.6" r="1.2"/></g><path fill="#E54938" d="M127.5 143.7h28.2v20.8h-28.2z"/><g transform="translate(136 149)" fill="#C43E2E"><circle cx="5.6" cy="5.9" r="5"/><path d="M.6 5.8h10v9.8H.6z"/></g><path d="M124.9 146.3l16.7-19.3 16.6 19.3h-33.3z" fill="#E54938"/><g fill="#FED304"><path d="M130.8 148.2h4.4v4.4h-4.4zM147.9 148.2h4.4v4.4h-4.4z"/></g><path d="M156.9 148.2c-1 0-1.9-.4-2.6-1.1L141.6 134l-12.7 13c-.7.7-1.6 1.1-2.6 1.1s-1.9-.4-2.5-1c-.7-.7-1.1-1.6-1.1-2.5 0-1 .4-1.9 1-2.6l15.3-15.7c.4-.4.8-.7 1.3-.9l.4-.1h.1c.3-.1.6-.1.8-.1 1 0 1.9.4 2.6 1.1l15.2 15.7c.7.7 1 1.6 1 2.6s-.4 1.9-1.1 2.5c-.6.7-1.5 1.1-2.4 1.1z" fill="#FFF"/><g fill="#A7A9AC"><path d="M139.8 112.7c0 .7-.6 1.2-1.2 1.2h-13.4c-.7 0-1.2-.6-1.2-1.2 0-.7.6-1.2 1.2-1.2h13.4c.7-.1 1.2.5 1.2 1.2zM136.7 117.1c0 .7-.6 1.2-1.2 1.2h-13.4c-.7 0-1.2-.6-1.2-1.2 0-.7.6-1.2 1.2-1.2h13.4c.6 0 1.2.5 1.2 1.2zM139 121.3c0 .7-.6 1.2-1.2 1.2h-13.4c-.7 0-1.2-.6-1.2-1.2 0-.7.6-1.2 1.2-1.2h13.4c.7 0 1.2.5 1.2 1.2z"/><path d="M126.8 113.4v1.2c0 .3 0 1.5-1.2 1.5 0 0-1.4.4-.1.4 1.3 0 3.5.2 3.5-3l-2.2-.1z"/><path d="M129.3 113.4v1.2c0 .3 0 1.5 1.2 1.5 0 0 1.4.4.1.4-1.3 0-3.5.2-3.5-3l2.2-.1zM131 117.6v1.2c0 .3 0 1.5-1.2 1.5 0 0-1.4.4-.1.4 1.3 0 3.5.2 3.5-3l-2.2-.1z"/><path d="M133.5 117.6v1.2c0 .3 0 1.5 1.2 1.5 0 0 1.4.4.1.4-1.3 0-3.5.2-3.5-3l2.2-.1zM127 122.4c1.3 0 4.1 1.9 4.1 3.9 0 0 .8-4.2-.9-4.2-1.7 0-3.2.3-3.2.3z"/></g><g transform="translate(213 140)"><circle fill="#E6E7E8" cx="13.1" cy="17.8" r="8.4"/><path d="M19.5 16.1c0-2-.7-3.9-1.8-5.4-1.3-.9-2.9-1.4-4.6-1.4-4.7 0-8.4 3.8-8.4 8.4 0 2.7 1.2 5 3.1 6.6.9.3 1.9.5 2.9.5 4.8.1 8.8-3.8 8.8-8.7z" fill="#F1F2F2"/><circle fill="#D34B3B" cx="13.1" cy="8.7" r="5.2"/><path d="M18.3 14.2c0 .6-.5 1.1-1.1 1.1-.6 0-1.1-.5-1.1-1.1V9.4c0-.6.5-1.1 1.1-1.1.6 0 1.1.5 1.1 1.1v4.8z" fill="#D34B3B"/><circle fill="#E6E7E8" cx="13.1" cy="7.1" r="5.2"/><path d="M17.5 5.7c0-.6-.1-1.1-.2-1.7-.9-1.3-2.5-2.2-4.3-2.2-2.9 0-5.2 2.3-5.2 5.2 0 1.8.9 3.3 2.2 4.3.5.2 1.1.2 1.7.2 3.2.1 5.8-2.5 5.8-5.8z" fill="#F1F2F2"/><circle fill="#484D5B" cx="11.4" cy="5.8" r=".6"/><circle fill="#484D5B" cx="14.7" cy="5.8" r=".6"/><circle fill="#D1D3D4" cx="13.1" cy="15.4" r=".9"/><circle fill="#D1D3D4" cx="13.1" cy="18.2" r=".9"/><circle fill="#FFF" cx="13" cy="15.3" r=".9"/><circle fill="#FFF" cx="13" cy="18.1" r=".9"/><path d="M13 10.5c-.8 0-1.5-.4-2-1v-.2h.2c.4.5 1.1.9 1.7.9.7 0 1.4-.4 1.8-1 0-.1.1-.1.2 0 .1 0 .1.1 0 .2-.3.7-1.1 1.1-1.9 1.1z" fill="#D1D3D4"/><path fill="#A97C50" d="M13.5 2.4c-.1 0-.1-.1-.1-.1l.1-1.4c0-.1.1-.1.1-.1.1 0 .1.1.1.1l-.1 1.4c0 .1 0 .1-.1.1z"/><path d="M13.5 1.8c-.1-.1-.2-.2-.1-.2l.5-.7c0-.1.1-.1.2 0 .1 0 .1.1 0 .2l-.5.7h-.1zM12.9 2.4c-.1 0-.1-.1-.1-.1L12.6.9c0-.1 0-.1.1-.2.1 0 .1 0 .2.1l.2 1.4c0 .2-.1.2-.2.2z" fill="#A97C50"/><circle fill="#F1592F" cx="13.1" cy="7.2" r=".6"/><path d="M12.5 7.4l.6 1.5.5-1.5h-1.1z" fill="#F1592F"/><g transform="translate(0 8)"><circle fill="#BCBEC0" cx="6.7" cy="5.9" r=".5"/><circle fill="#BCBEC0" cx="19.4" cy="5.9" r=".5"/><g fill="#A97C50"><path d="M6.7 6.3c-.1 0-.1 0-.2-.1L.3 2.7c-.2-.1-.3-.4-.2-.6.1-.2.4-.3.6-.2l6.2 3.5c.2.1.3.4.2.6-.2.3-.3.3-.4.3z"/><path d="M2.2 3.7c-.2 0-.3-.1-.4-.3l-.7-2.1c-.1-.2 0-.5.3-.5.2-.1.5 0 .5.3l.7 2.1c.1.2 0 .5-.3.5h-.1zM19.4 6.3c-.1 0-.3-.1-.4-.2-.1-.2 0-.5.2-.6L25.4 2c.2-.1.5 0 .6.2.1.2 0 .5-.2.6l-6.2 3.5h-.2z"/><path d="M23.9 3.7h-.1c-.2-.1-.3-.3-.3-.5l.7-2.1c.1-.2.3-.3.5-.3.2.1.3.3.3.5l-.7 2.1c-.1.2-.2.3-.4.3z"/></g></g></g><g><path d="M252.3 165.1c0 .3.3.5.7.5h1.6c.4 0 .7-.2.7-.5v-5.2c0-.3-.3-.5-.7-.5H253c-.4 0-.7.2-.7.5v5.2z" fill="#754C29"/><path d="M252.9 159.5c.3 0 .6.2.6.5v5.2c0 .2-.3.4-.6.5-.3 0-.6-.2-.6-.5V160c0-.3.3-.5.6-.5z" fill="#603913"/><path d="M269.2 160.7l-15.4-20-15.4 20s5.9-.1 15.4-.1c10.7.1 15.4.1 15.4.1z" fill="#65B75C"/><path d="M253.8 140.8l8.9 11.5c-1.7-.3-5.2-.4-9.1 0-4.2.4-8 1.3-10.2 2l10.4-13.5z" fill="#209452"/><path d="M265.7 151.6l-11.9-16.2-11.9 16.2s6-.1 11.9-.1c5.9-.1 11.9.1 11.9.1z" fill="#65B75C"/><path d="M253.8 135.3l5 6.8c-1.4-.3-3.1-.4-4.8-.3-2.4.2-4.8 1-6.3 1.8l6.1-8.3z" fill="#209452"/><path d="M261.6 141.3l-7.8-12.3-7.8 12.3h7.8c3.8-.1 7.8 0 7.8 0z" fill="#65B75C"/><g transform="translate(241 128)" fill="#FFF"><path d="M9.5 6.8c.5.3 1.3.2 1.6-.4l2.7-4.2c.3-.5.2-1.3-.4-1.6-.5-.3-1.3-.2-1.6.4L9.1 5.2c-.3.6-.1 1.3.4 1.6z"/><path d="M16.2 6.7c.5-.4.7-1.1.3-1.6L13.7 1c-.4-.5-1.1-.7-1.6-.3-.5.4-.7 1.1-.3 1.6l2.8 4.1c.4.5 1.1.7 1.6.3zM.4 23.1c0 .6.5 1.2 1.2 1.2h4.9c.6 0 1.2-.5 1.2-1.2 0-.6-.5-1.2-1.2-1.2H1.6c-.7.1-1.2.6-1.2 1.2z"/><circle cx="12.9" cy="4.6" r="2.1"/></g><path d="M177.7 164.6c0 .2-.2.3-.5.3h-1c-.2 0-.5-.1-.5-.3v-3.4c0-.2.2-.3.5-.3h1c.2 0 .5.1.5.3v3.4z" fill="#754C29"/><path d="M177.3 160.8c-.2 0-.4.2-.4.3v3.4c0 .2.2.3.4.3s.4-.1.4-.3v-3.4c0-.1-.2-.2-.4-.3z" fill="#603913"/><g><path d="M166.5 161.7l10.3-13.3 10.3 13.3h-10.3c-7.2-.1-10.3 0-10.3 0z" fill="#24AE5F"/><path d="M176.8 148.4l-5.9 7.6c1.2-.2 3.5-.3 6.1 0 2.8.3 5.3.9 6.8 1.3l-7-8.9z" fill="#209452"/><path d="M168.8 155.6l8-10.8 8 10.8s-4-.1-8-.1-8 .1-8 .1z" fill="#24AE5F"/><path d="M176.8 144.8l-3.3 4.5c.9-.2 2.1-.2 3.2-.2 1.6.1 3.2.7 4.2 1.2l-4.1-5.5z" fill="#209452"/><path d="M171.5 148.7l5.2-8.2 5.2 8.2h-10.4z" fill="#24AE5F"/></g><g transform="translate(168 148)" fill="#FFF"><path d="M14.1.7c0 .2-.2.4-.4.4h-2.8c-.2 0-.4-.2-.4-.4s.2-.4.4-.4h2.8c.3 0 .4.1.4.4zM4.3 7.5c0 .2-.2.4-.4.4H1.1c-.2 0-.4-.2-.4-.4s.2-.4.4-.4h2.8c.2 0 .4.2.4.4zM12.5 7.7c0 .3-.3.6-.6.6H6.2c-.3 0-.6-.3-.6-.6s.3-.6.6-.6h5.7c.3 0 .6.3.6.6z"/><circle cx="8.8" cy="8.1" r=".7"/></g><g><path d="M95.5 164c0 .3-.4.6-.8.6h-1.8c-.4 0-.8-.2-.8-.6v-6.1c0-.3.4-.6.8-.6h1.8c.4 0 .8.3.8.6v6.1z" fill="#754C29"/><path d="M94.8 157.4c-.4 0-.7.3-.7.5v6.1c0 .3.3.5.7.6.4 0 .7-.3.7-.6v-6.1c0-.3-.3-.5-.7-.5z" fill="#603913"/><g><path d="M75.7 158.9l18.1-23.4 18.1 23.4s-6.9-.1-18.1-.1c-12.5 0-18.1.1-18.1.1z" fill="#1E9A54"/><path d="M93.8 135.4l-10.4 13.5c2-.4 6.1-.5 10.7 0 5 .5 9.4 1.5 11.9 2.3l-12.2-15.8z" fill="#1D8B4C"/><path d="M79.8 148.1l14-19 14 19s-7.1-.1-14-.1-14 .1-14 .1z" fill="#1E9A54"/><path d="M93.8 129.1L88 137c1.6-.4 3.6-.4 5.6-.3 2.8.2 5.6 1.2 7.4 2.1l-7.2-9.7z" fill="#1D8B4C"/><path d="M84.7 136l9.2-14.4L103 136H84.7z" fill="#1E9A54"/></g><g transform="translate(82 120)" fill="#FFF"><path d="M7.9 7.3c-.5.3-1.3.2-1.6-.4L3.6 2.7c-.3-.5-.2-1.3.4-1.6.5-.3 1.3-.2 1.6.4l2.7 4.2c.3.6.2 1.3-.4 1.6z"/><path d="M1.2 7.2C.7 6.8.5 6.1.9 5.6l2.8-4.1c.4-.5 1.1-.7 1.6-.3.5.4.7 1.1.3 1.6L2.8 6.9c-.3.5-1 .7-1.6.3zM7.7 27.8c0 .6-.5 1.2-1.2 1.2H1.6C1 29 .4 28.5.4 27.8c0-.6.5-1.2 1.2-1.2h4.9c.7.1 1.2.6 1.2 1.2z"/><circle cx="11.6" cy="5.1" r="2.1"/><path d="M19.6 16.1c0 .7-.6 1.4-1.4 1.4H5.3c-.7 0-1.4-.6-1.4-1.4 0-.7.6-1.4 1.4-1.4h12.9c.8 0 1.4.6 1.4 1.4z"/><circle cx="11.2" cy="16.9" r="1.7"/><path d="M30.2 38.4c0 .7-.6 1.4-1.4 1.4H15.9c-.7 0-1.4-.6-1.4-1.4 0-.7.6-1.4 1.4-1.4h12.9c.8 0 1.4.6 1.4 1.4z"/><circle cx="27.1" cy="39.2" r="1.7"/></g></g><g><path d="M62.8 165.3c0 .2-.2.3-.5.3h-1c-.2 0-.5-.1-.5-.3v-3.4c0-.2.2-.3.5-.3h1c.2 0 .5.1.5.3v3.4z" fill="#754C29"/><path d="M62.4 161.5c-.2 0-.4.2-.4.3v3.4c0 .2.2.3.4.3s.4-.1.4-.3v-3.4c0-.1-.2-.3-.4-.3z" fill="#603913"/><g><path d="M51.6 162.3L61.9 149l10.3 13.3H51.6z" fill="#24AE5F"/><path d="M61.8 149.1l-5.9 7.6c1.2-.2 3.5-.3 6.1 0 2.8.3 5.3.9 6.8 1.3l-7-8.9z" fill="#209452"/><path d="M53.9 156.2l8-10.8 8 10.8s-4-.1-8-.1c-4 .1-8 .1-8 .1z" fill="#24AE5F"/><path d="M61.8 145.4l-3.3 4.5c.9-.2 2.1-.2 3.2-.2 1.6.1 3.2.7 4.2 1.2l-4.1-5.5z" fill="#209452"/><path d="M56.6 149.4l5.2-8.2 5.2 8.2H56.6z" fill="#24AE5F"/></g><g transform="translate(53 148)" fill="#FFF"><path d="M14.2 1.3c0 .2-.2.4-.4.4H11c-.2 0-.4-.2-.4-.4s.2-.4.4-.4h2.8c.2 0 .4.2.4.4zM4.3 8.2c0 .2-.2.4-.4.4H1.1c-.2 0-.4-.2-.4-.4s.2-.4.4-.4h2.8c.3 0 .4.2.4.4zM12.6 8.4c0 .3-.3.6-.6.6H6.3c-.3 0-.6-.3-.6-.6s.3-.6.6-.6H12c.3 0 .6.3.6.6z"/><circle cx="8.9" cy="8.8" r=".7"/></g></g><g><path d="M38.1 165.1c0 .3-.3.5-.7.5h-1.6c-.4 0-.7-.2-.7-.5v-5.2c0-.3.3-.5.7-.5h1.6c.4 0 .7.2.7.5v5.2z" fill="#754C29"/><path d="M37.6 159.5c-.3 0-.6.2-.6.5v5.2c0 .2.3.4.6.5.3 0 .6-.2.6-.5V160c-.1-.3-.3-.5-.6-.5z" fill="#603913"/><g><path d="M21.3 160.7l15.4-20 15.4 20s-5.9-.1-15.4-.1c-10.7.1-15.4.1-15.4.1z" fill="#65B75C"/><path d="M36.7 140.8l-8.9 11.5c1.7-.3 5.2-.4 9.1 0 4.2.4 8 1.3 10.2 2l-10.4-13.5z" fill="#209452"/><path d="M24.7 151.6l11.9-16.2 11.9 16.2s-6-.1-11.9-.1c-5.8-.1-11.9.1-11.9.1z" fill="#65B75C"/><path d="M36.7 135.3l-5 6.8c1.4-.3 3.1-.4 4.8-.3 2.4.2 4.8 1 6.3 1.8l-6.1-8.3z" fill="#209452"/><path d="M28.9 141.3l7.8-12.3 7.8 12.3h-7.8c-3.9-.1-7.8 0-7.8 0z" fill="#65B75C"/></g><g fill="#FFF"><path d="M38.093 134.077l.207.323c.3.6 1.1.7 1.6.4.6-.3.7-1 .4-1.6l-2.7-4.2c-.3-.6-1.1-.7-1.6-.4-.31.155-.487.445-.544.757L32.9 133.1c-.4.5-.2 1.2.3 1.6.6.4 1.3.2 1.6-.3l.257-.376c.383.416.933.676 1.543.676.584 0 1.112-.238 1.493-.623zM49 151.1c0 .6-.5 1.2-1.2 1.2h-4.9c-.6 0-1.2-.5-1.2-1.2 0-.6.5-1.2 1.2-1.2h4.9c.7.1 1.2.6 1.2 1.2z"/></g></g><g><path d="M311 164c0 .3-.4.6-.8.6h-1.8c-.4 0-.8-.2-.8-.6v-6.1c0-.3.4-.6.8-.6h1.8c.4 0 .8.3.8.6v6.1z" fill="#754C29"/><path d="M310.3 157.4c-.4 0-.7.3-.7.5v6.1c0 .3.3.5.7.6.4 0 .7-.3.7-.6v-6.1c0-.3-.3-.5-.7-.5z" fill="#603913"/><g><path d="M291.2 158.9l18.1-23.4 18.1 23.4s-6.9-.1-18.1-.1c-12.5 0-18.1.1-18.1.1z" fill="#1E9A54"/><path d="M309.3 135.4l-10.4 13.5c2-.4 6.1-.5 10.7 0 5 .5 9.4 1.5 11.9 2.3l-12.2-15.8z" fill="#1D8B4C"/><path d="M295.3 148.1l14-19 14 19s-7.1-.1-14-.1-14 .1-14 .1z" fill="#1E9A54"/><path d="M309.3 129.1l-5.8 7.9c1.6-.4 3.6-.4 5.6-.3 2.8.2 5.6 1.2 7.4 2.1l-7.2-9.7z" fill="#1D8B4C"/><path d="M300.2 136l9.2-14.4 9.2 14.4h-18.4z" fill="#1E9A54"/></g><g transform="translate(297 120)" fill="#FFF"><path d="M15.4 7.3c-.5.3-1.3.2-1.6-.4l-2.7-4.2c-.3-.5-.2-1.3.4-1.6.5-.3 1.3-.2 1.6.4l2.7 4.2c.3.6.2 1.3-.4 1.6z"/><path d="M8.7 7.2c-.5-.4-.7-1.1-.3-1.6l2.8-4.1c.4-.5 1.1-.7 1.6-.3.5.4.7 1.1.3 1.6l-2.8 4.1c-.3.5-1.1.7-1.6.3zM8.2 27.8c0 .6-.5 1.2-1.2 1.2H2.1c-.6 0-1.2-.5-1.2-1.2 0-.6.5-1.2 1.2-1.2H7c.7.1 1.2.6 1.2 1.2z"/><circle cx="12.1" cy="5.1" r="2.1"/><path d="M20.1 16.1c0 .7-.6 1.4-1.4 1.4H5.8c-.7 0-1.4-.6-1.4-1.4 0-.7.6-1.4 1.4-1.4h12.9c.8 0 1.4.6 1.4 1.4z"/><circle cx="11.7" cy="16.9" r="1.7"/><path d="M30.7 38.4c0 .7-.6 1.4-1.4 1.4H16.4c-.7 0-1.4-.6-1.4-1.4 0-.7.6-1.4 1.4-1.4h12.9c.8 0 1.4.6 1.4 1.4z"/><circle cx="27.6" cy="39.2" r="1.7"/></g></g><g><path d="M305 164.6c0 .2-.2.3-.5.3h-1c-.2 0-.5-.1-.5-.3v-3.4c0-.2.2-.3.5-.3h1c.2 0 .5.1.5.3v3.4z" fill="#754C29"/><path d="M304.6 160.8c-.2 0-.4.2-.4.3v3.4c0 .2.2.3.4.3s.4-.1.4-.3v-3.4c0-.1-.2-.2-.4-.3z" fill="#603913"/><g><path d="M293.7 161.7l10.3-13.3 10.3 13.3H304c-7.1-.1-10.3 0-10.3 0z" fill="#24AE5F"/><path d="M304 148.4l-5.9 7.6c1.2-.2 3.5-.3 6.1 0 2.8.3 5.3.9 6.8 1.3l-7-8.9z" fill="#209452"/><path d="M296 155.6l8-10.8 8 10.8s-4-.1-8-.1c-3.9 0-8 .1-8 .1z" fill="#24AE5F"/><path d="M304 144.8l-3.3 4.5c.9-.2 2.1-.2 3.2-.2 1.6.1 3.2.7 4.2 1.2l-4.1-5.5z" fill="#209452"/><path d="M298.8 148.7l5.2-8.2 5.2 8.2h-10.4z" fill="#24AE5F"/></g><g transform="translate(295 148)" fill="#FFF"><path d="M14.4.7c0 .2-.2.4-.4.4h-2.8c-.2 0-.4-.2-.4-.4s.2-.4.4-.4H14c.2 0 .4.1.4.4zM4.5 7.5c0 .2-.2.4-.4.4H1.3c-.2 0-.4-.2-.4-.4s.2-.4.4-.4h2.8c.2 0 .4.2.4.4zM12.8 7.7c0 .3-.3.6-.6.6H6.5c-.3 0-.6-.3-.6-.6s.3-.6.6-.6h5.7c.3 0 .6.3.6.6z"/><circle cx="9.1" cy="8.1" r=".7"/></g></g><g><path d="M288.6 165.1c0 .3.3.5.7.5h1.6c.4 0 .7-.2.7-.5v-5.2c0-.3-.3-.5-.7-.5h-1.6c-.4 0-.7.2-.7.5v5.2z" fill="#754C29"/><path d="M289.2 159.5c.3 0 .6.2.6.5v5.2c0 .2-.3.4-.6.5-.3 0-.6-.2-.6-.5V160c0-.3.2-.5.6-.5z" fill="#603913"/><g><path d="M305.4 160.7l-15.4-20-15.4 20s5.9-.1 15.4-.1c10.7.1 15.4.1 15.4.1z" fill="#65B75C"/><path d="M290 140.8l8.9 11.5c-1.7-.3-5.2-.4-9.1 0-4.2.4-8 1.3-10.2 2l10.4-13.5z" fill="#209452"/><path d="M302 151.6l-12-16.3-11.9 16.2s6-.1 11.9-.1 12 .2 12 .2z" fill="#65B75C"/><path d="M290 135.3l5 6.8c-1.4-.3-3.1-.4-4.8-.3-2.4.2-4.8 1-6.3 1.8l6.1-8.3z" fill="#209452"/><path d="M297.8 141.3L290 129l-7.8 12.3h7.8c3.9-.1 7.8 0 7.8 0z" fill="#65B75C"/></g><g transform="translate(277 128)" fill="#FFF"><path d="M9.8 6.8c.5.3 1.3.2 1.6-.4l2.7-4.2c.3-.5.2-1.3-.4-1.6-.5-.3-1.3-.2-1.6.4L9.4 5.2c-.3.6-.2 1.3.4 1.6z"/><path d="M16.5 6.7c.5-.4.7-1.1.3-1.6L14 1c-.4-.5-1.1-.7-1.6-.3-.5.4-.7 1.1-.3 1.6l2.8 4.1c.3.5 1.1.7 1.6.3zM.7 23.1c0 .6.5 1.2 1.2 1.2h4.9c.6 0 1.2-.5 1.2-1.2 0-.6-.5-1.2-1.2-1.2H1.9c-.7.1-1.2.6-1.2 1.2z"/><circle cx="13.1" cy="4.6" r="2.1"/></g></g><g><path d="M193.7 164c0 .3.4.6.8.6h1.8c.4 0 .8-.2.8-.6v-6.1c0-.3-.4-.6-.8-.6h-1.8c-.4 0-.8.3-.8.6v6.1z" fill="#754C29"/><path d="M194.3 157.4c.4 0 .7.3.7.5v6.1c0 .3-.3.5-.7.6-.4 0-.7-.3-.7-.6v-6.1c.1-.3.4-.5.7-.5z" fill="#603913"/><g><path d="M213.4 158.9l-18.1-23.4-18.1 23.4s6.9-.1 18.1-.1c12.6 0 18.1.1 18.1.1z" fill="#1E9A54"/><path d="M195.4 135.4l10.4 13.5c-2-.4-6.1-.5-10.7 0-5 .5-9.4 1.5-11.9 2.3l12.2-15.8z" fill="#1D8B4C"/><path d="M209.4 148.1l-14-19-14 19s7.1-.1 14-.1 14 .1 14 .1z" fill="#1E9A54"/><path d="M195.4 129.1l5.8 7.9c-1.6-.4-3.6-.4-5.6-.3-2.8.2-5.6 1.2-7.4 2.1l7.2-9.7z" fill="#1D8B4C"/><path d="M204.5 136l-9.2-14.4-9.2 14.4h18.4z" fill="#1E9A54"/></g><g fill="#FFF" transform="translate(177 120)"><path d="M15.3 7.3c.5.3 1.3.2 1.6-.4l2.7-4.2c.3-.5.2-1.3-.4-1.6-.5-.3-1.3-.2-1.6.4l-2.7 4.2c-.3.6-.2 1.3.4 1.6z"/><path d="M22 7.2c.5-.4.7-1.1.3-1.6l-2.8-4.1c-.4-.5-1.1-.7-1.6-.3-.5.4-.7 1.1-.3 1.6l2.8 4.1c.3.5 1 .7 1.6.3zM22.5 27.8c0 .6.5 1.2 1.2 1.2h4.9c.6 0 1.2-.5 1.2-1.2 0-.6-.5-1.2-1.2-1.2h-4.9c-.7.1-1.2.6-1.2 1.2z"/><circle cx="18.6" cy="5.1" r="2.1"/><path d="M0 38.4c0 .7.6 1.4 1.4 1.4h12.9c.7 0 1.4-.6 1.4-1.4 0-.7-.6-1.4-1.4-1.4H1.4c-.8 0-1.4.6-1.4 1.4z"/><circle cx="3.1" cy="39.2" r="1.7"/></g></g></g><g transform="translate(0 162)"><path fill="#2D313B" d="M6.7 6H336v20H6.7z"/><path fill="#FFF" d="M1.9 2.6h334v4H1.9z"/><path d="M55.3 5.3c0 2.2-1.8 4-4 4H4c-2.2 0-4-1.8-4-4s1.8-4 4-4h47.3c2.2 0 4 1.8 4 4zM104.7 5.3c0 2.6-2.1 4.7-4.7 4.7H75.3c-2.6 0-4.7-2.1-4.7-4.7S72.7.6 75.3.6H100c2.6.1 4.7 2.2 4.7 4.7zM339 5c0 1.9-1.6 3.5-3.5 3.5H128c-1.9 0-3.5-1.6-3.5-3.5s1.6-3.5 3.5-3.5h207.5c1.9 0 3.5 1.6 3.5 3.5z" fill="#FFF"/><circle fill="#FFF" cx="48.5" cy="8.5" r="6"/><circle fill="#FFF" cx="40.2" cy="8.7" r="4.5"/><circle fill="#FFF" cx="196.8" cy="8.5" r="6"/><circle fill="#FFF" cx="188.5" cy="8.7" r="4.5"/><circle fill="#FFF" cx="127.3" cy="6.2" r="4.7"/><circle fill="#FFF" cx="165.7" cy="6.9" r="5.4"/><circle fill="#FFF" cx="299" cy="8.7" r="4.5"/><circle fill="#FFF" cx="237.8" cy="6.2" r="4.7"/><circle fill="#FFF" cx="276.2" cy="6.9" r="5.4"/><circle fill="#FFF" cx="82.7" cy="6.9" r="5.4"/></g><g><path fill="#E4BE21" d="M274.9 160.3h1.1v2.7h-1.1z"/><g transform="translate(256 136)"><ellipse fill="#B33F30" transform="rotate(-59.262 13.204 13.528)" cx="13.204" cy="13.528" rx="9.1" ry="9.9"/><path d="M17.9 5.7c-3.1-1.9-6.8-1.9-9.7-.5-1.2.7-2.1 1.7-2.9 2.9-2.6 4.3-.9 10.1 3.8 12.9 3.1 1.9 6.8 1.9 9.7.5 1.2-.7 2.1-1.7 2.9-2.9 2.6-4.4.9-10.2-3.8-12.9z" fill="#E54938"/><path d="M7 8.5s-1.2.1-1.7.7.1.4.4.1c.3-.3.8-.6 1.3-.8zM7.1 8.6s-.8.3-1 .8c-.2.4.1.3.3 0 .1-.3.4-.6.7-.8zM2.1 6.1l-.2.2s-.1.1 0 .2c0 .2.2.3.3.3l4.7 1.3H7V8L5.8 3.2v-.1c-.1-.1-.3-.2-.4-.1l-.3.3-3 2.8zM7.3 8.6s-.5 1.7 0 2.7c.5 1 .7.2.4-.5-.4-.6-.4-1.4-.4-2.2zM7.5 8.6s.1 1 .5 1.4c.5.4.4-.1.1-.3-.3-.2-.5-.7-.6-1.1zM7.6 8.1S8.5 7 9.3 6.9c.8-.1.4.3-.1.4-.5.1-1.1.5-1.6.8z" fill="#B33F30"/><path d="M7.2 8.1s0-.1 0 0c0-.1 0-.1 0 0v-.2L6 3.1V3c-.1-.1-.3-.2-.4-.1l-.3.3L3.5 5l3.7 3.1z" fill="#E54938"/><path d="M7.3 8.8c-.1 0-.3-.1-.3-.1v-.1h.1s.1.1.2.1.1 0 .2-.1c.2-.2 0-.4 0-.4v-.1h.1c.1.1.3.4 0 .7 0-.1-.1 0-.3 0z" fill="#FFF"/><path d="M7.1 8.6c-.2 0-.3-.1-.4-.2v-.2h.2s.1.1.2.1.2 0 .2-.1c.2-.3 0-.5 0-.5s-.1-.1 0-.2c0 0 .1-.1.2 0s.3.5 0 .8c-.1.2-.3.3-.4.3z" fill="#FFF"/><path d="M7.2 7.8S6.1 6.9 6 6.1c-.1-.8.3-.4.4.1.1.6.4 1.1.8 1.6z" fill="#B33F30"/><path d="M6.7 8.4c-.2 0-.4-.1-.5-.2-.1-.1 0-.1 0-.2.1-.1.1 0 .2 0 0 0 .2.1.3.1.1 0 .2 0 .3-.1.3-.3.1-.5 0-.6-.1-.1-.1-.1 0-.2 0-.1.1-.1.2 0 .2.1.4.5 0 1-.1.1-.3.2-.5.2zM6 2.1c.3.3.3.9 0 1.2L2.4 6.8c-.3.3-.9.3-1.2 0-.3-.3-.3-.9 0-1.2l3.6-3.5c.4-.3.9-.3 1.2 0z" fill="#FFF"/><path d="M16.8 8.7s-.8 6.2-5.7 7.7c1.3 1.8 4.7 4.1 6.6 3.3 1.9-.7 3.6-3.3 3.6-5.1 0-2.2-2.8-5.4-4.5-5.9z" fill="#B33F30"/><path d="M11.5 16.6c-.1 0-.1 0 0 0l-.1-.7.6.4v-.7l.8.3v-.7l.6.3v-.8l.7.3-.1-.9.8.2-.2-.7.7.1-.4-.8.8.1-.4-.8.8-.1-.5-.7.9-.2-.5-.7.9-.2-.6-.7.8-.3h.1v.1l-.7.3.7.7-.9.2.5.7-.9.2.5.7-.8.1.4.8-.8-.1.4.8-.8-.1.2.7-.8-.2.1.9-.7-.3.1.8-.6-.3v.7l-.8-.3v.8l-.6-.4-.2.5zM16.1 20.3l-.2-.6-.4.4-.1-.6-.5.3-.1-.6-.6.3v-.6l-.6.3v-.6l-.6.2v-.6l-.5.1.1-.5h-.5v-.5l-.5.1.2-.6h.1v.1l-.1.5.5-.1v.5l.5-.1v.5l.5-.1v.5l.6-.2v.6l.6-.2v.6l.5-.3.1.6.5-.3.1.5.4-.4.2.6.4-.4h.1v.1l-.7.5z" fill="#FED304"/><path d="M17.6 20.2l-.5-.5v-.1h.1l.4.4.1-.6.5.3v-.6l.6.2-.1-.6.5.2v-.6l.5.1-.1-.6.6.1-.2-.6.6-.1-.2-.6.6-.2-.3-.6.5-.2-.4-.5.5-.3-.5-.3.6-.4-.6-.3.4-.7-.8-.2.3-.6-.7-.2.2-.6h-.6l.1-.6-.6.1.2-.6-.6.1.1-.6-.6.1.1-.5-.6.2v-.6l-.4.2h-.1v-.1l.5-.3v.7l.6-.2-.2.5.6-.1-.1.6.7-.1-.2.6.6-.1-.1.6h.7l-.2.7.7.2-.3.6.8.2-.4.7.7.3-.6.5.5.4-.5.3.4.5-.5.2.3.6-.6.2.2.6-.6.2.2.7-.6-.1.1.6-.5-.1.1.6-.5-.2.1.6-.6-.2v.6l-.6-.3-.3.4z" fill="#FED304"/></g><path fill="#E4BE21" d="M267 160.3h1.1v2.7H267z"/><path d="M285.7 149.3c.1-2.6-1.7-3.4-3.7-3.4s-4.5 1.5-6.3 4.7c-1.9 3.2-2.7 3.9-5.2 3.9-6 0-5-5.2-9.9-5.2h-4.5c-1.7 0-1.2.9-1.2 1.5 0 1.4 1.1 1.5 3 1.5 2.7 0 2.8 8.8 9.2 8.8h8.2c3.9 0 6.7-2.8 8.1-5 1.3-2.1 2.2-4.4 2.3-6.8z" fill="#E54938"/><path d="M253.3 151.9c0 .2.2.4.4.4h6.9c.2 0 .4-.2.4-.4v-2.2c0-.2-.2-.4-.4-.4h-6.9c-.2 0-.4.2-.4.4v2.2z" fill="#E54938"/><path d="M270.4 155.1c1.9 0 3.5-.3 5.1-2.9 1.7-2.8 3.5-5.6 6.5-5.6.3 0 .6-.3.6-.6s-.3-.6-.6-.6c-3.7 0-5.7 3.3-7.5 6.2-1.5 2.4-2.7 2.4-4.8 2.3h-.8c-1.5 0-2.9-1.6-4-2.9-.6-.7-1.1-1.2-1.6-1.6-1.2-.8-2.6-.8-4-.7h-5.6c-.3 0-.6.3-.6.6s.3.6.6.6h5.6c1.3 0 2.4-.1 3.3.5.3.2.8.8 1.3 1.3 1.3 1.5 2.8 3.3 4.9 3.3h.8c.3.1.5.1.8.1z" fill="#FFF"/><path d="M255.1 163.7h25.7c.4 0 .7-.3.7-.7 0-.4-.3-.7-.7-.7h-25.7c-2.1 0-3.8-1.7-3.8-3.8 0-2.1 1.7-3.8 3.8-3.8 1.4 0 2.6.7 3.3 1.9.2.3.6.5.9.3.3-.2.5-.6.3-.9-.9-1.6-2.6-2.7-4.5-2.7-2.8 0-5.2 2.3-5.2 5.2 0 2.9 2.3 5.2 5.2 5.2z" fill="#FED304"/></g><g transform="translate(47)" fill="#FFF"><circle cx="133.7" cy="2.4" r="2"/><circle cx="186.5" cy="46.5" r="2"/><circle cx="80.5" cy="86.5" r="2"/><circle cx="2" cy="86" r="2"/><circle cx="153" cy="107.5" r="2"/><circle cx="220" cy="113" r="2"/><circle cx="235.5" cy="44.5" r="2"/><circle cx="27.3" cy="64.1" r="1.4"/><circle cx="97.9" cy="20.6" r="1.6"/><circle cx="132" cy="39.5" r="1.6"/><circle cx="40" cy="29.5" r="1.6"/><circle cx="213" cy="50" r="1.6"/><circle cx="179.5" cy="92.5" r="1.6"/><circle cx="130.5" cy="95.5" r="1.6"/><circle transform="rotate(-5.4 24.612 105.01)" cx="24.612" cy="105.011" r="1.6"/><circle transform="rotate(-5.4 242.52 101.508)" cx="242.52" cy="101.508" r="1.6"/><circle cx="67" cy="34.5" r=".8"/><circle cx="103.9" cy="46.8" r=".8"/><circle cx="83.4" cy="67.2" r=".8"/><circle cx="155.3" cy="67.2" r=".8"/><circle cx="100.5" cy="100" r=".8"/><circle cx="183" cy="110.2" r=".8"/><circle cx="55.5" cy="93.3" r=".8"/><circle cx="204.7" cy="89.5" r=".8"/></g></svg>